<svg width="154" height="26" viewBox="0 0 154 26" fill="none" xmlns="http://www.w3.org/2000/svg">
<path d="M24.876 4.768C24.9133 4.84267 24.9507 4.91733 24.988 4.992C25.0253 5.048 25.0533 5.11333 25.072 5.188H24.036C24.0733 5.26267 24.1107 5.356 24.148 5.468C24.1853 5.56133 24.2227 5.65467 24.26 5.748H19.864L20.032 6.308H22.3L22.384 6.728H22.076C22.0947 6.76533 22.104 6.812 22.104 6.868C22.104 6.924 22.1133 6.97067 22.132 7.008H21.376L21.404 7.288H21.992C21.992 7.36267 21.992 7.43733 21.992 7.512C22.0107 7.568 22.02 7.63333 22.02 7.708H23.056C23.0747 7.78267 23.084 7.848 23.084 7.904C23.084 7.96 23.084 8.02533 23.084 8.1V8.128H20.452C20.452 8.22133 20.452 8.31467 20.452 8.408C20.4707 8.50133 20.48 8.59467 20.48 8.688H21.068C21.068 8.78133 21.068 8.87467 21.068 8.968C21.0867 9.06133 21.096 9.15467 21.096 9.248H22.104V9.388H21.712V9.948H21.824V10.368H23.476V10.928H21.908V11.208H21.74C21.74 11.2453 21.74 11.292 21.74 11.348C21.74 11.404 21.7307 11.4507 21.712 11.488H21.208V12.048H21.264C21.2453 12.104 21.236 12.1787 21.236 12.272V12.328H22.272C22.272 12.4027 22.2627 12.4773 22.244 12.552C22.244 12.608 22.244 12.6733 22.244 12.748H22.664C22.664 12.8413 22.6547 12.9347 22.636 13.028C22.636 13.1213 22.6267 13.2147 22.608 13.308H21.992C21.9733 13.3453 21.964 13.392 21.964 13.448C21.964 13.504 21.9547 13.5507 21.936 13.588H18.576C18.576 13.6627 18.5573 13.756 18.52 13.868H21.46C21.4227 13.98 21.404 14.0733 21.404 14.148H21.824C21.8053 14.2227 21.7867 14.2973 21.768 14.372C21.768 14.428 21.7493 14.4933 21.712 14.568L21.628 14.848H20.816L20.76 14.988H22.076C22.0387 15.0627 22.02 15.1093 22.02 15.128H21.18L21.124 15.268H21.096C21.0587 15.3613 21.0213 15.4547 20.984 15.548C20.9467 15.6413 20.9 15.7347 20.844 15.828H20.424L20.116 16.388H20.592L20.424 16.668H20.452C20.4147 16.7053 20.3773 16.752 20.34 16.808C20.3027 16.864 20.2653 16.9107 20.228 16.948H20.032C19.976 17.004 19.9387 17.0507 19.92 17.088C19.864 17.1627 19.808 17.2373 19.752 17.312C19.696 17.368 19.6307 17.4333 19.556 17.508H19.472C19.3787 17.6013 19.276 17.6947 19.164 17.788C19.0707 17.8813 18.968 17.9747 18.856 18.068H19.108L18.52 18.488H18.548C18.3987 18.5813 18.24 18.6747 18.072 18.768C17.904 18.8613 17.7267 18.9547 17.54 19.048H17.512C17.3253 19.1413 17.092 19.2347 16.812 19.328H16.84C16.4667 19.4587 16.0747 19.5707 15.664 19.664C15.2533 19.7573 14.8333 19.832 14.404 19.888H14.992C14.6933 19.9253 14.3853 19.9533 14.068 19.972C13.7507 19.9907 13.424 20 13.088 20H4.884C4.716 20 4.58533 19.9627 4.492 19.888H3.904C3.71733 19.776 3.60533 19.5893 3.568 19.328H3.54V19.048H3.596V18.488H3.54V18.068H3.316V17.508H3.4V17.088H3.372V16.948H3.596V16.668H3.568V16.388H3.064V15.828H3.512V15.268H3.54V15.128H4.38V14.988H3.092V14.848H3.904V14.148H3.512V13.868H3.484V13.588H4.212V13.308H0.992V12.748H0.88V12.328H1.244V12.048H2.392V11.488H3.12V11.208H3.54V10.928H3.988V10.368H4.632V9.948H5.248V9.388H3.372V9.248H2.756V8.688H1.524V8.128H4.716V7.708H2.252V7.288H3.596V7.008H3.54V6.728H3.316V6.308H2.112V5.748H6.48V5.188H7.516V4.768H2.476V4.208H5.78V4.068H3.176V3.928H8.468V3.368H7.796V3.228H1.132V2.668H1.944V2.248H3.68V2.108H4.604V1.828H4.1V1.688H3.512V1.408H3.568V1.156C3.568 1.11867 3.568 1.09067 3.568 1.072C3.58667 1.03467 3.596 1.00667 3.596 0.987999H3.708C3.80133 0.595999 4.05333 0.399999 4.464 0.399999H12.528C13.9653 0.399999 15.272 0.595999 16.448 0.987999H16.336C16.672 1.1 17.0173 1.24 17.372 1.408H17.316C17.4093 1.44533 17.5027 1.492 17.596 1.548C17.708 1.58533 17.8013 1.632 17.876 1.688H18.464L18.716 1.828H19.192C19.2853 1.86533 19.36 1.912 19.416 1.968C19.4907 2.024 19.5653 2.07067 19.64 2.108H18.716C18.7533 2.12667 18.7907 2.14533 18.828 2.164C18.8653 2.18267 18.8933 2.21067 18.912 2.248H17.176L17.708 2.668H16.868C17.0733 2.836 17.26 3.02267 17.428 3.228H24.092C24.1107 3.24667 24.1293 3.26533 24.148 3.284C24.1667 3.30267 24.1853 3.33067 24.204 3.368H24.904C24.9787 3.44267 25.0533 3.536 25.128 3.648C25.2027 3.74133 25.268 3.83467 25.324 3.928H20.032C20.0507 3.94667 20.0693 3.96533 20.088 3.984C20.1067 4.00267 20.1253 4.03067 20.144 4.068H22.748L22.832 4.208H19.528C19.6587 4.39467 19.7613 4.58133 19.836 4.768H24.876ZM14.992 6.728C14.88 6.56 14.74 6.42 14.572 6.308H12.304C11.8933 6.00933 11.3893 5.86 10.792 5.86H9.112V6.308H10.316V6.728H10.54V7.008H10.596V7.288H9.252V7.708H11.716V8.128H8.524V8.688H9.756V9.248H10.372V9.388H12.248V9.948H11.632V10.368H10.988V10.928H10.54V11.208H10.12V11.488H9.392V12.048H8.244V12.328H7.88V12.748H7.992V13.308H11.212V13.588H10.484V13.868H10.512V14.148H10.904V14.54H12.724C13.2653 14.54 13.7227 14.4093 14.096 14.148H13.648C13.704 14.1107 13.76 14.0733 13.816 14.036C13.872 13.98 13.9187 13.924 13.956 13.868H11.044C11.0813 13.8307 11.1187 13.7933 11.156 13.756C11.1933 13.7 11.2213 13.644 11.24 13.588H14.6C14.6373 13.5507 14.6653 13.5133 14.684 13.476C14.7027 13.42 14.7213 13.364 14.74 13.308H15.384C15.4213 13.2147 15.4493 13.1213 15.468 13.028C15.4867 12.9347 15.5053 12.8413 15.524 12.748H15.104C15.1227 12.6733 15.132 12.608 15.132 12.552C15.132 12.4773 15.1413 12.4027 15.16 12.328H14.124V12.272C14.124 12.2347 14.124 12.1973 14.124 12.16C14.1427 12.1227 14.152 12.0853 14.152 12.048H14.096C14.096 11.9547 14.096 11.8613 14.096 11.768C14.096 11.656 14.1053 11.5627 14.124 11.488H14.628V11.208H14.796L14.824 10.928H16.392V10.368H14.74V9.948H14.628V9.388H15.02V9.248H13.984V8.688H13.368C13.368 8.59467 13.368 8.50133 13.368 8.408C13.368 8.31467 13.3587 8.22133 13.34 8.128H15.972V8.1C15.972 8.02533 15.9627 7.96 15.944 7.904C15.944 7.82933 15.944 7.764 15.944 7.708H14.908C14.8893 7.63333 14.8707 7.568 14.852 7.512C14.8333 7.43733 14.8147 7.36267 14.796 7.288H14.208C14.1893 7.232 14.1707 7.18533 14.152 7.148C14.1333 7.092 14.1147 7.04533 14.096 7.008H14.852C14.8333 6.952 14.8053 6.90533 14.768 6.868C14.7493 6.812 14.7213 6.76533 14.684 6.728H14.992ZM42.1586 11.908C42.1772 12.0013 42.1866 12.0947 42.1866 12.188C42.1866 12.2813 42.1866 12.3747 42.1866 12.468H40.1986V12.748H39.0506V13.028H40.1426V13.168H38.8826V13.588H38.1826V13.728H39.7506C39.7506 13.784 39.7412 13.8307 39.7226 13.868H39.6386V14.008H39.8906V14.036C39.8906 14.1107 39.8812 14.1947 39.8626 14.288C39.8626 14.3813 39.8532 14.4747 39.8346 14.568H39.6386L39.5546 15.128H39.9746C39.9746 15.2027 39.9559 15.296 39.9186 15.408H39.8346C39.8159 15.4827 39.7972 15.5573 39.7786 15.632C39.7599 15.688 39.7412 15.7533 39.7226 15.828H39.9466C39.9279 15.9213 39.8999 16.0147 39.8626 16.108C39.8252 16.2013 39.7879 16.2947 39.7506 16.388H39.3306L39.2186 16.668H39.2746C39.2372 16.7427 39.2186 16.7893 39.2186 16.808H39.1066C39.0319 16.9947 38.9292 17.1813 38.7986 17.368H38.8546C38.8359 17.4053 38.8079 17.452 38.7706 17.508C38.7332 17.564 38.6959 17.6107 38.6586 17.648H38.6306L38.2946 18.068C38.2759 18.0867 38.2572 18.1053 38.2386 18.124C38.2199 18.1427 38.1919 18.1707 38.1546 18.208H38.0146C37.9399 18.2827 37.8652 18.3573 37.7906 18.432C37.7159 18.488 37.6319 18.5533 37.5386 18.628H36.6986L36.1106 19.048H36.2226C36.1852 19.0667 36.1479 19.0853 36.1106 19.104C36.0732 19.1227 36.0359 19.1507 35.9986 19.188H35.8026C35.7652 19.2067 35.7186 19.2253 35.6626 19.244C35.6066 19.2627 35.5599 19.2907 35.5226 19.328H37.0346C36.9412 19.384 36.8386 19.44 36.7266 19.496C36.6146 19.5333 36.5026 19.5707 36.3906 19.608H35.9146C35.7839 19.664 35.6439 19.72 35.4946 19.776C35.3452 19.8133 35.1959 19.8507 35.0466 19.888H35.1586C34.9346 19.944 34.7012 19.9907 34.4586 20.028C34.2159 20.084 33.9639 20.1307 33.7026 20.168H34.5706C34.2719 20.2053 33.9639 20.2333 33.6466 20.252C33.3292 20.2707 33.0026 20.28 32.6666 20.28C32.3119 20.28 31.9759 20.2707 31.6586 20.252C31.3599 20.2333 31.0519 20.2053 30.7346 20.168H29.8386C29.5959 20.1307 29.3439 20.084 29.0826 20.028C28.8399 19.9907 28.6066 19.944 28.3826 19.888H28.2986C28.1492 19.8507 27.9999 19.8133 27.8506 19.776C27.7199 19.72 27.5799 19.664 27.4306 19.608H27.8786C27.7852 19.5707 27.6826 19.5333 27.5706 19.496C27.4586 19.44 27.3559 19.384 27.2626 19.328H25.7506L25.4986 19.188H25.6946L25.4426 19.048H25.3306C25.1066 18.8987 24.9106 18.7587 24.7426 18.628H25.5826C25.5079 18.5533 25.4332 18.488 25.3586 18.432C25.2839 18.3573 25.2092 18.2827 25.1346 18.208H25.2746C25.2559 18.1707 25.2372 18.1427 25.2186 18.124C25.1999 18.1053 25.1719 18.0867 25.1346 18.068L24.7986 17.648H24.8266L24.6306 17.368H24.5746C24.4439 17.1813 24.3412 16.9947 24.2666 16.808H24.3506C24.3132 16.7333 24.2946 16.6867 24.2946 16.668H24.2106L24.0986 16.388H24.5186C24.4999 16.2947 24.4719 16.2013 24.4346 16.108C24.3972 16.0147 24.3599 15.9213 24.3226 15.828H24.0986C24.0799 15.7533 24.0612 15.688 24.0426 15.632C24.0239 15.5573 24.0052 15.4827 23.9866 15.408H23.8186L23.7346 15.128H23.4546L23.3706 14.568H23.6506C23.6319 14.4747 23.6132 14.3813 23.5946 14.288C23.5946 14.1947 23.5946 14.1107 23.5946 14.036V14.008H23.0906V13.868H22.9506C22.9506 13.8307 22.9412 13.8027 22.9226 13.784C22.9226 13.7653 22.9226 13.7467 22.9226 13.728H24.4906C24.4906 13.672 24.4812 13.6253 24.4626 13.588H22.8946V13.168H23.5666V13.028H23.9026V12.748H24.4906V12.468H22.7826C22.7826 12.3747 22.7826 12.2813 22.7826 12.188C22.7826 12.0947 22.7919 12.0013 22.8106 11.908H22.4466V11.628H25.2186C25.2372 11.572 25.2466 11.4973 25.2466 11.404V11.208H24.4906C24.4906 11.1333 24.4906 11.068 24.4906 11.012C24.5092 10.9373 24.5186 10.8627 24.5186 10.788H24.7986L24.8826 10.228H23.9586C23.9772 10.1533 23.9959 10.088 24.0146 10.032C24.0332 9.95733 24.0519 9.88267 24.0706 9.808H23.8746C23.9119 9.71467 23.9399 9.62133 23.9586 9.528C23.9959 9.416 24.0332 9.32267 24.0706 9.248H24.0986C24.1172 9.21067 24.1359 9.164 24.1546 9.108C24.1732 9.052 24.1919 9.00533 24.2106 8.968H24.1826C24.1826 8.94933 24.2012 8.90267 24.2386 8.828H24.3786C24.4532 8.64133 24.5559 8.45467 24.6866 8.268H24.1266L24.2946 7.988H25.3306C25.3492 7.95067 25.3866 7.904 25.4426 7.848H23.3986C23.4359 7.77333 23.4826 7.708 23.5386 7.652C23.6132 7.57733 23.6786 7.50267 23.7346 7.428H24.3786C24.4719 7.33467 24.5652 7.24133 24.6586 7.148C24.7706 7.036 24.8732 6.94267 24.9666 6.868H26.2546C26.4226 6.71867 26.6186 6.57867 26.8426 6.448H27.3746C27.4492 6.392 27.5239 6.34533 27.5986 6.308C27.6919 6.252 27.7759 6.20533 27.8506 6.168H26.1986C26.3666 6.07467 26.5719 5.98133 26.8146 5.888H27.5706C27.9999 5.72 28.4479 5.58 28.9146 5.468H28.0746C28.9892 5.26267 29.9599 5.16 30.9866 5.16C32.0132 5.16 32.9839 5.26267 33.8986 5.468H34.7666C35.2332 5.58 35.6719 5.72 36.0826 5.888H35.2986C35.5412 5.98133 35.7466 6.07467 35.9146 6.168H37.5666C37.6599 6.20533 37.7439 6.252 37.8186 6.308C37.9119 6.34533 37.9959 6.392 38.0706 6.448H37.5386L38.1266 6.868H36.8386C36.9506 6.94267 37.0532 7.036 37.1466 7.148C37.2586 7.24133 37.3612 7.33467 37.4546 7.428H36.8106C36.8666 7.50267 36.9226 7.57733 36.9786 7.652C37.0532 7.708 37.1092 7.77333 37.1466 7.848H39.2186L39.3026 7.988H38.2946L38.4626 8.268H39.0226C39.1532 8.45467 39.2559 8.64133 39.3306 8.828H39.1906C39.2279 8.90267 39.2466 8.94933 39.2466 8.968H39.3026L39.4146 9.248H39.3866C39.4239 9.32267 39.4612 9.416 39.4986 9.528C39.5359 9.62133 39.5639 9.71467 39.5826 9.808H39.8626L39.9466 10.228H39.7786C39.8159 10.3027 39.8346 10.396 39.8346 10.508C39.8532 10.6013 39.8719 10.6947 39.8906 10.788H40.1146C40.1332 10.8627 40.1426 10.9373 40.1426 11.012C40.1426 11.068 40.1519 11.1333 40.1706 11.208H39.0786V11.404C39.0786 11.4973 39.0879 11.572 39.1066 11.628H38.5466V11.908H42.1586ZM31.4066 10.788C31.3879 10.8627 31.3692 10.9373 31.3506 11.012C31.3506 11.068 31.3506 11.1333 31.3506 11.208H32.1346C32.1159 11.264 32.1066 11.32 32.1066 11.376C32.1066 11.432 32.1066 11.488 32.1066 11.544V11.628H32.2186V11.544C32.2186 11.488 32.2092 11.432 32.1906 11.376C32.1906 11.32 32.1906 11.264 32.1906 11.208H33.2826C33.2826 11.1333 33.2732 11.068 33.2546 11.012C33.2546 10.9373 33.2546 10.8627 33.2546 10.788H33.0306C33.0119 10.676 32.9839 10.5733 32.9466 10.48C32.9279 10.3867 32.8999 10.3027 32.8626 10.228H33.0586C32.9839 10.06 32.8719 9.92 32.7226 9.808H32.4426C32.2559 9.696 32.0132 9.64 31.7146 9.64C31.4159 9.64 31.1826 9.696 31.0146 9.808H31.2106C31.1359 9.864 31.0706 9.92933 31.0146 10.004C30.9586 10.06 30.9119 10.1347 30.8746 10.228H31.7986C31.7799 10.3027 31.7519 10.3867 31.7146 10.48C31.6959 10.5733 31.6772 10.676 31.6586 10.788H31.4066ZM33.3106 12.468H35.2986V11.908H31.6866C31.6679 11.8333 31.6586 11.74 31.6586 11.628H29.3346C29.3346 11.74 29.3252 11.8333 29.3066 11.908H29.6706V12.468H31.3786V12.748H30.7626V13.028H30.4266V13.168H29.7546C29.7546 13.2427 29.7546 13.3173 29.7546 13.392C29.7732 13.448 29.7826 13.5133 29.7826 13.588H31.9946V13.168H33.2546V13.028H32.1626V12.748H33.3106V12.468ZM32.8626 13.868V13.728H29.8106V13.868H29.9506V13.896C29.9506 13.9147 29.9506 13.9333 29.9506 13.952C29.9692 13.9707 29.9786 13.9893 29.9786 14.008H30.4546C30.4732 14.1013 30.4826 14.1947 30.4826 14.288C30.4826 14.3813 30.4919 14.4747 30.5106 14.568H30.2306C30.2679 14.8107 30.3052 14.9973 30.3426 15.128H30.6506C30.6879 15.24 30.7252 15.3333 30.7626 15.408H30.9586C31.1266 15.6693 31.4439 15.8 31.9106 15.8C32.3772 15.8 32.6946 15.6693 32.8626 15.408H32.9746C32.9932 15.3707 33.0119 15.3333 33.0306 15.296C33.0492 15.24 33.0679 15.184 33.0866 15.128H32.6666C32.6852 15.0347 32.7039 14.9507 32.7226 14.876C32.7412 14.7827 32.7599 14.68 32.7786 14.568H32.9746C32.9932 14.4747 33.0026 14.3813 33.0026 14.288C33.0026 14.1947 33.0119 14.1013 33.0306 14.008H32.7786V13.868H32.8626ZM60.0674 11.208V11.348H56.9594C56.9781 11.3853 56.9874 11.432 56.9874 11.488C56.9874 11.544 56.9874 11.5907 56.9874 11.628H55.5034V12.048H57.0714V12.468H58.3594V12.888H57.7434V13.028H59.5634V13.588H58.3034V13.84C58.3034 13.9707 58.2941 14.0733 58.2754 14.148H58.6394C58.6394 14.2413 58.6301 14.3347 58.6114 14.428C58.6114 14.5213 58.6021 14.6147 58.5834 14.708H57.3794V14.848H58.3034L58.2754 15.128H57.2394L57.1554 15.548H58.0794C58.0607 15.6227 58.0421 15.6973 58.0234 15.772C58.0234 15.828 58.0047 15.8933 57.9674 15.968H58.3314L58.1634 16.528H57.6314C57.6127 16.5653 57.5941 16.612 57.5754 16.668C57.5754 16.724 57.5567 16.7707 57.5194 16.808H57.7434C57.7061 16.8827 57.6687 16.9573 57.6314 17.032C57.6127 17.088 57.5847 17.1533 57.5474 17.228H57.5194C57.4447 17.4147 57.3421 17.6013 57.2114 17.788H56.8194C56.7447 17.8813 56.6794 17.9747 56.6234 18.068C56.5674 18.1613 56.4927 18.2547 56.3994 18.348H56.6794C56.6607 18.3853 56.6234 18.432 56.5674 18.488L56.4274 18.628H56.5674C56.5487 18.6467 56.5301 18.6653 56.5114 18.684C56.4927 18.7027 56.4647 18.7307 56.4274 18.768H56.4554C56.2314 18.992 56.0074 19.1787 55.7834 19.328H55.7274C55.5221 19.4773 55.2794 19.6173 54.9994 19.748H54.7754C54.0101 20.1027 53.1327 20.28 52.1434 20.28C51.2101 20.28 50.3981 20.1027 49.7074 19.748H49.9314C49.7261 19.6547 49.5207 19.5147 49.3154 19.328H49.3434C49.1381 19.1413 48.9607 18.9547 48.8114 18.768V19.328H48.6994V19.748H48.8674V20.308H48.1114V20.868H48.5314V21.288H49.3154V21.568H48.7834V21.708H46.4034V22.268H47.0754V22.408H49.2874V22.968H48.0834V23.388H48.3354V23.948H48.6434V24.508H48.5314V24.648H48.6434C48.6061 24.9093 48.4847 25.096 48.2794 25.208H47.7474C47.6541 25.2827 47.5234 25.32 47.3554 25.32H42.1754C41.9887 25.32 41.8487 25.2827 41.7554 25.208H42.3154C42.1101 25.096 41.9887 24.9093 41.9514 24.648H41.8394V24.508H41.9514V23.948H41.6434V23.388H41.3914V22.968H42.5954V22.408H40.3834V22.268H39.7114V21.708H42.0914V21.568H42.6234V21.288H41.8394V20.868H41.4194V20.308H42.1754V19.748H42.0074V19.328H42.1194V18.768H42.2874V18.628H41.8114V18.488H41.8394V18.348H41.5314V17.788H41.9514V16.808H41.7554V16.528H42.2874V15.968H41.9234V15.548H41.0274V15.128H42.3994V14.848H41.6154V14.708H42.0074V14.148H41.3354V13.588H42.6234V13.028H43.8834V12.888H42.5954V12.468H41.3634V12.048H39.8514V11.628H43.4634V11.348H39.3194V11.208H41.3074V10.928H42.2874V10.648H42.1754V10.088H41.9514V9.808H41.3354V9.248H41.7834V8.688H43.4074V8.268H40.8314V7.988H44.0234V7.428H44.7514V7.288H43.4074V7.008H43.6034V6.588H42.6794V6.448H46.2914V6.308H43.7994V6.196C43.7994 6.06533 43.8274 5.96267 43.8834 5.888H42.5674C42.6981 5.58933 42.9314 5.44 43.2674 5.44H48.0274C48.3447 5.44 48.5687 5.58933 48.6994 5.888H49.9034C50.1087 5.75733 50.3234 5.64533 50.5474 5.552C50.7901 5.45867 51.0421 5.384 51.3034 5.328H50.7994C51.2474 5.216 51.7421 5.16 52.2834 5.16C52.8434 5.16 53.3754 5.216 53.8794 5.328H54.3834C54.9061 5.44 55.4007 5.62667 55.8674 5.888H57.4914C57.6967 5.98133 57.9021 6.12133 58.1074 6.308H57.9674L58.1354 6.448H59.5634L59.7314 6.588H56.7914L57.1834 7.008H58.2754L58.4714 7.288H59.8154C59.8341 7.30667 59.8527 7.32533 59.8714 7.344C59.8901 7.36267 59.9087 7.39067 59.9274 7.428H59.1994C59.3301 7.57733 59.4421 7.764 59.5354 7.988H56.3434C56.3807 8.02533 56.4087 8.072 56.4274 8.128C56.4461 8.184 56.4647 8.23067 56.4834 8.268H59.0314C59.0687 8.34267 59.1061 8.41733 59.1434 8.492C59.1807 8.548 59.2087 8.61333 59.2274 8.688H57.6034L57.7714 9.248H57.3234C57.3607 9.32267 57.3887 9.416 57.4074 9.528C57.4261 9.62133 57.4447 9.71467 57.4634 9.808H58.0794C58.1167 9.92 58.1354 10.0133 58.1354 10.088H58.3594L58.4434 10.648H57.9114L57.9394 10.928H54.5234C54.5421 10.9653 54.5514 11.012 54.5514 11.068C54.5514 11.124 54.5514 11.1707 54.5514 11.208H60.0674ZM50.0154 5.888C50.0527 5.944 50.0714 6.04667 50.0714 6.196V6.308H50.9394C51.1074 6.15867 51.3034 6.01867 51.5274 5.888H50.0154ZM48.9514 6.448V6.588H51.9194C51.9381 6.55067 51.9567 6.52267 51.9754 6.504C52.0127 6.48533 52.0407 6.46667 52.0594 6.448H48.9514ZM50.2674 10.172C49.7447 10.172 49.3807 10.3307 49.1754 10.648H49.2594C49.2407 10.6853 49.2221 10.732 49.2034 10.788C49.1847 10.8253 49.1567 10.872 49.1194 10.928H50.9394C50.9207 10.8533 50.8741 10.76 50.7994 10.648H51.3314C51.1261 10.3307 50.7714 10.172 50.2674 10.172ZM53.1794 11.348L53.1234 11.208H46.0954C46.0954 11.2267 46.0861 11.2453 46.0674 11.264C46.0674 11.2827 46.0674 11.3107 46.0674 11.348H53.1794ZM50.2394 12.468C50.2394 12.3933 50.2394 12.328 50.2394 12.272C50.2394 12.1973 50.2301 12.1227 50.2114 12.048H48.6434V11.796C48.6434 11.7587 48.6341 11.7307 48.6154 11.712C48.6154 11.6747 48.6154 11.6467 48.6154 11.628H46.5714C46.5527 11.6653 46.5434 11.7213 46.5434 11.796V12.048H48.0554C48.0367 12.1227 48.0274 12.1973 48.0274 12.272C48.0274 12.328 48.0274 12.3933 48.0274 12.468H49.2594V12.888H50.5194V13.028H49.2594C49.2594 13.1027 49.2594 13.196 49.2594 13.308C49.2781 13.4013 49.2874 13.4947 49.2874 13.588H47.9994C47.9994 13.7 48.0087 13.7933 48.0274 13.868C48.0274 13.9987 48.0367 14.092 48.0554 14.148H48.7274C48.7834 14.372 48.8487 14.5587 48.9234 14.708H48.5314L48.6154 14.848H49.4274C49.5394 14.9787 49.6514 15.072 49.7634 15.128H48.3914C48.6154 15.2213 48.8581 15.268 49.1194 15.268C49.3621 15.268 49.5954 15.2213 49.8194 15.128H50.8274C50.9394 15.072 51.0514 14.9787 51.1634 14.848H50.2394L50.3234 14.708H51.5274C51.6021 14.5587 51.6674 14.372 51.7234 14.148H51.3594L51.4434 13.644V13.588H52.7034C52.7034 13.4947 52.7034 13.4013 52.7034 13.308C52.7034 13.2147 52.7127 13.1213 52.7314 13.028H50.9114V12.888H51.5274V12.468H50.2394ZM74.7151 12.328V12.608H78.2711V12.888H76.1151V13.168H75.1071V13.448H75.9751V13.616C75.9751 13.728 75.9658 13.812 75.9471 13.868H76.3391C76.2085 14.204 75.9658 14.372 75.6111 14.372H67.2671V14.428H68.3871V14.512C68.3871 14.5867 68.3871 14.6707 68.3871 14.764C68.3871 14.8387 68.3965 14.9133 68.4151 14.988H66.9031C66.9031 15.044 66.9031 15.1 66.9031 15.156C66.9218 15.1933 66.9311 15.2307 66.9311 15.268H66.7631C66.7631 15.3427 66.7818 15.436 66.8191 15.548H66.9311C67.0245 15.8093 67.1738 15.996 67.3791 16.108H66.6231C66.7538 16.1827 66.9311 16.22 67.1551 16.22C67.3045 16.22 67.4258 16.1827 67.5191 16.108H68.8351C68.9098 16.0707 68.9751 16.0147 69.0311 15.94C69.1058 15.8653 69.1898 15.7907 69.2831 15.716L69.4511 15.548H68.9191C69.0871 15.3987 69.3391 15.324 69.6751 15.324H74.9671C75.1911 15.324 75.3591 15.3987 75.4711 15.548H75.9751C76.0685 15.6787 76.1151 15.8093 76.1151 15.94C76.0965 15.9773 76.0871 16.0333 76.0871 16.108H74.7711C74.7338 16.2947 74.6778 16.4813 74.6031 16.668H73.2311C73.1751 16.7613 73.1285 16.8547 73.0911 16.948H76.5631C76.5258 17.0413 76.4698 17.1347 76.3951 17.228C76.3391 17.3213 76.2738 17.4147 76.1991 17.508H75.3591C75.2845 17.62 75.2098 17.7133 75.1351 17.788H75.3311C75.3125 17.8067 75.2938 17.8253 75.2751 17.844C75.2565 17.8627 75.2378 17.8907 75.2191 17.928H73.6511L73.5111 18.068H73.9871C73.9685 18.0867 73.9405 18.1053 73.9031 18.124C73.8845 18.1427 73.8658 18.1707 73.8471 18.208H74.7151C74.5845 18.3387 74.4165 18.4787 74.2111 18.628H73.7911C73.7725 18.6467 73.7445 18.6653 73.7071 18.684C73.6698 18.7027 73.6325 18.7307 73.5951 18.768H73.2871C72.9885 18.9733 72.6618 19.16 72.3071 19.328H71.9431C71.7191 19.44 71.4765 19.5427 71.2151 19.636C70.9725 19.7293 70.7111 19.8133 70.4311 19.888H69.9831C69.7778 19.944 69.5631 19.9907 69.3391 20.028C69.1151 20.084 68.8725 20.1307 68.6111 20.168H69.7871C69.5258 20.2053 69.2551 20.2333 68.9751 20.252C68.6951 20.2707 68.3965 20.28 68.0791 20.28C67.7805 20.28 67.4818 20.2707 67.1831 20.252C66.8845 20.2333 66.5951 20.2053 66.3151 20.168H65.1391C64.8965 20.1307 64.6631 20.084 64.4391 20.028C64.2151 19.9907 63.9911 19.944 63.7671 19.888H64.2151C63.7111 19.7573 63.2351 19.5707 62.7871 19.328H63.1511C62.8151 19.1413 62.5258 18.9547 62.2831 18.768H62.5911C62.5538 18.7307 62.5165 18.7027 62.4791 18.684C62.4605 18.6653 62.4325 18.6467 62.3951 18.628H62.8151C62.7405 18.5533 62.6658 18.488 62.5911 18.432C62.5165 18.3573 62.4418 18.2827 62.3671 18.208H61.4711L61.3311 18.068H60.8551C60.8365 18.0307 60.8178 18.0027 60.7991 17.984C60.7805 17.9653 60.7618 17.9467 60.7431 17.928H62.2831C62.2645 17.8907 62.2271 17.844 62.1711 17.788H61.9751C61.9378 17.7507 61.9005 17.704 61.8631 17.648C61.8258 17.592 61.7885 17.5453 61.7511 17.508H62.5911C62.5351 17.4147 62.4791 17.3213 62.4231 17.228C62.3671 17.1347 62.3111 17.0413 62.2551 16.948H58.7551C58.6991 16.8547 58.6525 16.7613 58.6151 16.668H59.9871L59.7351 16.108H60.4911C60.4538 16.0147 60.4165 15.9213 60.3791 15.828C60.3605 15.7347 60.3325 15.6413 60.2951 15.548H60.2111L60.1271 15.268H60.3231L60.2391 14.988H61.7511C61.7325 14.8947 61.7138 14.8013 61.6951 14.708C61.6765 14.6147 61.6578 14.5213 61.6391 14.428H60.5191L60.4631 13.868H60.0711C60.0711 13.7933 60.0618 13.728 60.0431 13.672C60.0431 13.5973 60.0431 13.5227 60.0431 13.448H59.1751V13.168H60.1551V12.888H62.3111V12.608H58.7551V12.552C58.7551 12.4587 58.7645 12.384 58.7831 12.328H63.6271C63.6271 12.2533 63.6271 12.188 63.6271 12.132C63.6458 12.0573 63.6551 11.9827 63.6551 11.908H59.2031C59.2031 11.8707 59.2031 11.8427 59.2031 11.824C59.2218 11.8053 59.2311 11.7867 59.2311 11.768H61.0791C61.0791 11.712 61.0885 11.6653 61.1071 11.628H63.1791V11.488H59.2311C59.2498 11.3947 59.2685 11.3013 59.2871 11.208C59.3058 11.1147 59.3245 11.0213 59.3431 10.928H60.4071C60.4071 10.8533 60.4258 10.76 60.4631 10.648H59.5391C59.5391 10.6107 59.5391 10.5827 59.5391 10.564C59.5578 10.5453 59.5671 10.5267 59.5671 10.508H60.2391C60.2391 10.4707 60.2391 10.4427 60.2391 10.424C60.2578 10.4053 60.2671 10.3867 60.2671 10.368H59.5671L59.6231 10.228H60.2951L60.3791 9.948H60.9111L61.0791 9.528H60.5751C60.6125 9.43467 60.6498 9.34133 60.6871 9.248C60.7245 9.136 60.7711 9.04267 60.8271 8.968H60.7431L60.7991 8.828H60.0991C60.1365 8.75333 60.1551 8.70667 60.1551 8.688H59.5111L59.6791 8.408H61.0511C61.0698 8.37067 61.1071 8.324 61.1631 8.268H61.6671C61.7418 8.17467 61.8071 8.08133 61.8631 7.988C61.9378 7.876 62.0125 7.78267 62.0871 7.708H61.5831C61.6391 7.63333 61.6951 7.568 61.7511 7.512C61.8258 7.43733 61.9005 7.36267 61.9751 7.288H63.0671L63.3471 7.008H61.6951C61.9378 6.80267 62.1805 6.616 62.4231 6.448H63.9631L64.1871 6.308H63.6831C63.8325 6.21467 64.0098 6.12133 64.2151 6.028H65.3071C65.8111 5.78533 66.3338 5.59867 66.8751 5.468H65.3071C65.7178 5.37467 66.1471 5.3 66.5951 5.244C67.0431 5.188 67.5098 5.16 67.9951 5.16C68.4805 5.16 68.9378 5.188 69.3671 5.244C69.7965 5.3 70.2071 5.37467 70.5991 5.468H72.1391C72.4191 5.54267 72.6805 5.62667 72.9231 5.72C73.1845 5.81333 73.4365 5.916 73.6791 6.028H72.5871C72.6805 6.06533 72.7645 6.112 72.8391 6.168C72.9325 6.20533 73.0165 6.252 73.0911 6.308H73.5951C73.6325 6.32667 73.6698 6.34533 73.7071 6.364C73.7445 6.38267 73.7818 6.41067 73.8191 6.448H72.2791C72.5218 6.616 72.7645 6.80267 73.0071 7.008H74.6871L74.9671 7.288H73.8751C73.9498 7.36267 74.0151 7.43733 74.0711 7.512C74.1458 7.568 74.2111 7.63333 74.2671 7.708H74.7711C74.8458 7.78267 74.9111 7.876 74.9671 7.988C75.0418 8.08133 75.1165 8.17467 75.1911 8.268H74.6591C74.6778 8.30533 74.7151 8.352 74.7711 8.408H73.3711L73.5391 8.688H74.1831L74.2671 8.828H74.9951C74.9951 8.84667 75.0138 8.89333 75.0511 8.968H75.1351L75.3871 9.528L75.5551 9.948H75.5831L75.6671 10.228H75.3311L75.3871 10.368H75.6391L75.6951 10.508H76.1431C76.1431 10.5267 76.1431 10.5453 76.1431 10.564C76.1618 10.5827 76.1711 10.6107 76.1711 10.648H75.9471L76.0311 10.928H74.9671L75.0511 11.488H78.9991V11.628H76.9271C76.9271 11.6467 76.9271 11.6653 76.9271 11.684C76.9458 11.7027 76.9551 11.7307 76.9551 11.768H75.0791C75.0978 11.8053 75.1071 11.852 75.1071 11.908H79.5591C79.5591 11.9827 79.5591 12.0573 79.5591 12.132C79.5591 12.188 79.5685 12.2533 79.5871 12.328H74.7151ZM66.2031 10.508V10.648H67.0991V10.872H69.3391V10.648H69.5351V10.508H69.0871V10.368H68.8071C68.8071 10.312 68.7978 10.2653 68.7791 10.228H69.1151C69.1151 10.1533 69.0965 10.06 69.0591 9.948H69.0311C69.0125 9.78 68.9565 9.64 68.8631 9.528C68.6765 9.22933 68.3871 9.08 67.9951 9.08C67.6218 9.08 67.3418 9.22933 67.1551 9.528H67.6591C67.5845 9.64 67.5285 9.78 67.4911 9.948H66.9311C66.9311 9.98533 66.9218 10.032 66.9031 10.088C66.9031 10.1253 66.8938 10.172 66.8751 10.228H66.2031C66.2031 10.284 66.1938 10.3307 66.1751 10.368H66.8751V10.508H66.2031ZM95.4644 17.228H94.3164L94.0644 17.508H98.3484C98.3298 17.5267 98.3111 17.5453 98.2924 17.564C98.2738 17.5827 98.2458 17.6107 98.2084 17.648H91.6004C91.5071 17.7413 91.4044 17.8347 91.2924 17.928C91.1991 18.0213 91.0964 18.1147 90.9844 18.208H93.0284L92.6644 18.488H96.4724L96.2484 18.628H94.5964C94.5778 18.6467 94.5404 18.6653 94.4844 18.684C94.4471 18.7027 94.4098 18.7307 94.3724 18.768H92.4964L91.7124 19.188H92.8044C92.5618 19.3 92.3191 19.4027 92.0764 19.496C91.8338 19.5707 91.5818 19.6547 91.3204 19.748H90.3124C89.6778 19.9347 88.9871 20.0747 88.2404 20.168H88.3804C88.0818 20.2053 87.7738 20.2333 87.4564 20.252C87.1391 20.2707 86.8218 20.28 86.5044 20.28C86.1498 20.28 85.7951 20.2707 85.4404 20.252C85.1044 20.2333 84.7778 20.2053 84.4604 20.168H84.3484C83.5458 20.0747 82.8271 19.9347 82.1924 19.748H83.2004C82.9204 19.6547 82.6591 19.5707 82.4164 19.496C82.1738 19.4027 81.9311 19.3 81.6884 19.188H80.5964C80.4658 19.1133 80.3351 19.048 80.2044 18.992C80.0738 18.9173 79.9431 18.8427 79.8124 18.768H81.7164L81.4924 18.628H83.1444C83.1258 18.5907 83.0978 18.5627 83.0604 18.544C83.0231 18.5253 82.9858 18.5067 82.9484 18.488H79.1404C79.0658 18.4507 79.0004 18.404 78.9444 18.348C78.8884 18.292 78.8324 18.2453 78.7764 18.208H76.7044C76.6111 18.1147 76.5178 18.0213 76.4244 17.928C76.3124 17.8347 76.2098 17.7413 76.1164 17.648H82.7244C82.7058 17.6107 82.6871 17.5827 82.6684 17.564C82.6498 17.5453 82.6311 17.5267 82.6124 17.508H78.3284C78.2538 17.4333 78.1791 17.34 78.1044 17.228H79.2524C79.2338 17.1907 79.2151 17.1627 79.1964 17.144C79.1778 17.1253 79.1591 17.1067 79.1404 17.088H82.6404L82.3884 16.668H80.6524L80.5684 16.528H76.6204C76.6018 16.4533 76.5738 16.388 76.5364 16.332C76.4991 16.2573 76.4618 16.1827 76.4244 16.108H78.3004L78.1324 15.688H77.4604L77.4044 15.548H77.7124C77.6938 15.4733 77.6751 15.408 77.6564 15.352C77.6378 15.2773 77.6191 15.2027 77.6004 15.128H77.3764C77.3764 15.0533 77.3671 14.988 77.3484 14.932C77.3484 14.8573 77.3391 14.7827 77.3204 14.708H77.0964C77.0964 14.6333 77.0871 14.568 77.0684 14.512C77.0684 14.456 77.0684 14.3907 77.0684 14.316V14.288H77.0404C77.0404 14.2507 77.0404 14.2227 77.0404 14.204C77.0591 14.1853 77.0684 14.1667 77.0684 14.148H77.7124C77.8058 13.8493 78.0018 13.7 78.3004 13.7H83.6204C83.9191 13.7 84.1431 13.7373 84.2924 13.812C84.4418 13.8867 84.6098 13.9987 84.7964 14.148H84.1524L84.1804 14.176C84.2178 14.1947 84.2458 14.2133 84.2644 14.232C84.3018 14.2507 84.3298 14.2693 84.3484 14.288H84.3764C84.6191 14.4747 84.9178 14.6147 85.2724 14.708H85.5244C85.7671 14.7827 86.0938 14.82 86.5044 14.82C86.7471 14.82 86.9711 14.8107 87.1764 14.792C87.3818 14.7733 87.5591 14.7453 87.7084 14.708H87.6244C88.0538 14.6147 88.3244 14.4747 88.4364 14.288H88.3804C88.4178 14.2133 88.4364 14.1667 88.4364 14.148H88.7164L88.7444 14.036C88.7444 13.868 88.6791 13.7187 88.5484 13.588H88.3244C88.1564 13.42 87.8578 13.28 87.4284 13.168H87.3444C87.1764 13.112 86.9804 13.0653 86.7564 13.028C86.5324 12.972 86.2711 12.9253 85.9724 12.888H85.8044L84.6564 12.72C84.5258 12.7013 84.3951 12.6827 84.2644 12.664C84.1524 12.6453 84.0311 12.6267 83.9004 12.608C83.1351 12.4773 82.3978 12.2907 81.6884 12.048H81.1844C80.9231 11.9547 80.6804 11.8613 80.4564 11.768H80.0644C79.9711 11.7307 79.8778 11.6933 79.7844 11.656C79.6911 11.6 79.5978 11.544 79.5044 11.488H77.0684C76.9378 11.4133 76.8164 11.348 76.7044 11.292C76.5924 11.2173 76.4804 11.1427 76.3684 11.068H81.5764C81.4831 10.9933 81.3898 10.928 81.2964 10.872C81.2218 10.7973 81.1378 10.7227 81.0444 10.648H75.4724C75.4164 10.6107 75.3698 10.564 75.3324 10.508C75.2764 10.452 75.2298 10.4053 75.1924 10.368H76.6484C76.4804 10.1813 76.3218 9.99467 76.1724 9.808H76.5924L76.4244 9.528H73.7364C73.7178 9.49067 73.6991 9.46267 73.6804 9.444C73.6618 9.42533 73.6524 9.40667 73.6524 9.388H80.0364C79.9991 9.31333 79.9618 9.248 79.9244 9.192C79.8871 9.11733 79.8498 9.04267 79.8124 8.968H74.9124L74.7444 8.548H78.6924L78.6364 8.408H77.4604L77.4044 8.268H77.9644C77.9644 8.23067 77.9551 8.20267 77.9364 8.184C77.9364 8.16533 77.9364 8.14667 77.9364 8.128H77.8244L77.7404 7.848H77.5724L77.5444 7.568H77.4884V7.428H76.5924C76.5738 7.39067 76.5644 7.344 76.5644 7.288C76.5644 7.232 76.5644 7.18533 76.5644 7.148H75.7524L75.7244 6.868H78.9164C78.8978 6.83067 78.8884 6.784 78.8884 6.728C78.8884 6.672 78.8884 6.62533 78.8884 6.588H79.3364V6.56C79.3364 6.46667 79.3364 6.37333 79.3364 6.28C79.3364 6.18667 79.3458 6.10267 79.3644 6.028H78.1604C78.1791 5.95333 78.1884 5.888 78.1884 5.832C78.1884 5.75733 78.1978 5.68267 78.2164 5.608H80.1764C80.1764 5.57067 80.1764 5.54267 80.1764 5.524C80.1951 5.50533 80.2044 5.48667 80.2044 5.468H78.2164C78.2538 5.356 78.2724 5.26267 78.2724 5.188H77.9644L78.0484 4.908H77.5724C77.6284 4.70267 77.6938 4.516 77.7684 4.348H77.9924L78.1044 4.068H78.4124L78.6644 3.648H78.3844C78.4404 3.57333 78.4871 3.508 78.5244 3.452C78.5804 3.37733 78.6271 3.30267 78.6644 3.228H78.4404L78.7764 2.808H79.3644C79.3831 2.77067 79.4018 2.74267 79.4204 2.724C79.4391 2.70533 79.4578 2.68667 79.4764 2.668H78.6924C78.7671 2.59333 78.8418 2.528 78.9164 2.472C78.9911 2.39733 79.0658 2.32267 79.1404 2.248H79.5884C79.7004 2.15467 79.8124 2.06133 79.9244 1.968C80.0364 1.856 80.1578 1.76267 80.2884 1.688H80.7924C80.9044 1.61333 81.0164 1.548 81.1284 1.492C81.2404 1.41733 81.3618 1.34267 81.4924 1.268H81.4084C81.4458 1.23067 81.4924 1.20267 81.5484 1.184C81.6044 1.16533 81.6511 1.14667 81.6884 1.128H81.2964C81.3338 1.09067 81.3804 1.06267 81.4364 1.044C81.4924 1.02533 81.5484 1.00667 81.6044 0.987999H81.3244C81.5858 0.875999 81.8564 0.773332 82.1364 0.679998C82.4351 0.586665 82.7338 0.502665 83.0324 0.427998H83.4524C83.8818 0.334665 84.3298 0.259999 84.7964 0.204C85.2818 0.147999 85.7858 0.119999 86.3084 0.119999C87.2978 0.119999 88.2311 0.222665 89.1084 0.427998H88.7164C89.3138 0.558666 89.8924 0.745333 90.4524 0.987999H90.7044C90.7604 1.00667 90.8164 1.02533 90.8724 1.044C90.9284 1.06267 90.9844 1.09067 91.0404 1.128H91.4324C91.4698 1.14667 91.5164 1.16533 91.5724 1.184C91.6284 1.20267 91.6751 1.23067 91.7124 1.268H91.7964C91.9271 1.34267 92.0484 1.41733 92.1604 1.492C92.2911 1.548 92.4124 1.61333 92.5244 1.688H92.0484C92.1978 1.76267 92.3284 1.856 92.4404 1.968C92.5711 2.06133 92.6924 2.15467 92.8044 2.248H92.3844L92.8324 2.668H93.6164L93.7564 2.808H93.1684C93.2431 2.88267 93.3084 2.95733 93.3644 3.032C93.4391 3.088 93.5044 3.15333 93.5604 3.228H93.7844L94.1204 3.648H94.3724L94.6244 4.068H94.3164C94.3724 4.16133 94.4191 4.25467 94.4564 4.348H94.2324C94.2884 4.44133 94.3351 4.53467 94.3724 4.628C94.4098 4.72133 94.4471 4.81467 94.4844 4.908H94.9604C94.9978 5.02 95.0164 5.11333 95.0164 5.188H95.3524C95.3711 5.22533 95.3804 5.272 95.3804 5.328C95.3804 5.384 95.3898 5.43067 95.4084 5.468H97.3964V5.608H95.6044C95.6231 5.68267 95.6324 5.78533 95.6324 5.916V6.028H94.5964C94.5218 6.364 94.3351 6.532 94.0364 6.532H88.4364C88.1751 6.532 87.9604 6.49467 87.7924 6.42C87.6431 6.34533 87.4844 6.23333 87.3164 6.084L87.2324 6.028H88.2684C88.1751 5.95333 88.0444 5.87867 87.8764 5.804C87.7084 5.71067 87.4938 5.64533 87.2324 5.608H86.2244C85.8324 5.664 85.5618 5.804 85.4124 6.028H86.6164C86.5604 6.14 86.5324 6.252 86.5324 6.364C86.5324 6.45733 86.5418 6.532 86.5604 6.588H86.1404C86.1591 6.68133 86.2338 6.77467 86.3644 6.868H83.2004C83.3124 6.96133 83.5084 7.05467 83.7884 7.148H84.6004C84.7498 7.204 84.9271 7.26 85.1324 7.316C85.3564 7.35333 85.5898 7.39067 85.8324 7.428H86.7284C86.8778 7.44667 87.0364 7.46533 87.2044 7.484C87.3724 7.50267 87.5498 7.53067 87.7364 7.568H87.7644C88.0818 7.60533 88.3898 7.652 88.6884 7.708C88.9871 7.74533 89.2671 7.792 89.5284 7.848H89.6964C89.9204 7.88533 90.1258 7.932 90.3124 7.988C90.5178 8.02533 90.7138 8.072 90.9004 8.128H91.0124C91.1058 8.14667 91.1898 8.16533 91.2644 8.184C91.3391 8.20267 91.4138 8.23067 91.4884 8.268H90.9564C91.0311 8.28667 91.0964 8.30533 91.1524 8.324C91.2271 8.34267 91.3018 8.37067 91.3764 8.408H92.5524C92.6084 8.42667 92.6644 8.44533 92.7204 8.464C92.7951 8.48267 92.8604 8.51067 92.9164 8.548H88.9684C89.3418 8.69733 89.6404 8.83733 89.8644 8.968H94.7644C94.8764 9.04267 94.9884 9.11733 95.1004 9.192C95.2124 9.248 95.3151 9.31333 95.4084 9.388H89.0244C89.0618 9.40667 89.0991 9.42533 89.1364 9.444C89.1738 9.46267 89.2018 9.49067 89.2204 9.528H91.9084C91.9644 9.56533 92.0204 9.612 92.0764 9.668C92.1324 9.724 92.1791 9.77067 92.2164 9.808H91.7964C91.9831 9.976 92.1418 10.1627 92.2724 10.368H90.8164C90.8538 10.4053 90.8911 10.452 90.9284 10.508C90.9658 10.564 90.9938 10.6107 91.0124 10.648H96.5564L96.8084 11.068H91.6004C91.6378 11.1427 91.6751 11.2173 91.7124 11.292C91.7498 11.348 91.7778 11.4133 91.7964 11.488H94.2044L94.2884 11.768H94.6804L94.7644 12.048H95.2684C95.3058 12.1227 95.3244 12.216 95.3244 12.328C95.3431 12.4213 95.3618 12.5147 95.3804 12.608L95.4084 12.888H95.5764C95.5951 12.9253 95.6044 12.972 95.6044 13.028C95.6044 13.084 95.6044 13.1307 95.6044 13.168H95.6884V13.588H95.9404V13.672C95.9404 13.7467 95.9311 13.8213 95.9124 13.896C95.9124 13.9707 95.9124 14.0547 95.9124 14.148H95.6324V14.288H95.6884C95.6884 14.3627 95.6791 14.4373 95.6604 14.512C95.6604 14.568 95.6511 14.6333 95.6324 14.708H95.7164L95.6324 15.128H95.8564C95.8378 15.2027 95.8191 15.2773 95.8004 15.352C95.7818 15.408 95.7538 15.4733 95.7164 15.548H95.4084C95.4084 15.5667 95.3991 15.5853 95.3804 15.604C95.3804 15.6227 95.3804 15.6507 95.3804 15.688H96.0524L95.8844 16.108H94.0084C93.9898 16.1827 93.9524 16.2573 93.8964 16.332C93.8591 16.388 93.8218 16.4533 93.7844 16.528H97.7324L97.6484 16.668H99.3564C99.3191 16.7427 99.2724 16.8173 99.2164 16.892C99.1791 16.948 99.1324 17.0133 99.0764 17.088H95.5764C95.5578 17.1067 95.5391 17.1253 95.5204 17.144C95.5018 17.1627 95.4831 17.1907 95.4644 17.228ZM88.1844 5.608H89.0244C88.9684 5.58933 88.9031 5.58 88.8284 5.58C88.7724 5.58 88.7071 5.58 88.6324 5.58C88.5578 5.58 88.4831 5.58 88.4084 5.58C88.3338 5.58 88.2591 5.58933 88.1844 5.608ZM116.024 15.968H113.448V16.248H115.268V16.388H114.932V16.668H114.232V17.368H114.484V17.648H115.268V17.928H113.392V18.488H115.38V18.908H114.204V19.188H114.568V19.328H114.232C114.195 19.44 114.157 19.5333 114.12 19.608C114.101 19.6453 114.064 19.692 114.008 19.748H114.036C113.961 19.8227 113.905 19.8693 113.868 19.888H113.812C113.719 19.9627 113.588 20 113.42 20H107.932C107.783 20 107.643 19.9627 107.512 19.888H107.596C107.559 19.8693 107.503 19.8227 107.428 19.748H107.4C107.344 19.692 107.307 19.6453 107.288 19.608H107.316C107.26 19.5147 107.232 19.4213 107.232 19.328H107.568V19.188H107.204V18.908H108.38V18.488H106.392V17.928H108.268V17.648H107.484V17.368H107.232V16.668H107.932V16.388H108.268V16.248H106.448V15.968H109.024V15.688H107.176V15.268H108.044V14.988H106.924V15.268H106.28V15.688H105.804V15.968H106.084V16.248H105.076V16.388H104.488V16.668H104.432V16.948H104.376V17.368H103.368V17.648H102.192V17.928H104.012V18.488H101.856V18.908H102.528V19.188H104.04V19.328H104.432L104.348 19.608H104.32C104.301 19.6267 104.283 19.6453 104.264 19.664C104.245 19.6827 104.227 19.7107 104.208 19.748H104.236C104.161 19.8227 104.105 19.8693 104.068 19.888H104.684C104.553 19.9627 104.413 20 104.264 20H98.8039C98.6359 20 98.5052 19.9627 98.4119 19.888H97.7959C97.7585 19.8693 97.7025 19.8227 97.6279 19.748C97.5719 19.692 97.5345 19.6453 97.5159 19.608H97.5439C97.5252 19.5707 97.5065 19.5333 97.4879 19.496C97.4692 19.44 97.4599 19.384 97.4599 19.328H97.0679V19.188H95.5559V18.908H94.8839V18.488H97.0399V17.928H95.2199V17.648H96.3959V17.368H97.4039V16.948H97.4599V16.668H97.5159V16.388H98.1039V16.248H99.1119V15.968H98.8319V15.688H99.3079V15.268H99.9519V14.988H96.5079V14.848H96.8999V14.708H97.5439V14.568H96.9839V14.428H97.4879V14.008H97.4599V13.588H96.9839V13.448H97.3759V13.168H97.7959V13.028H97.0959V12.468H96.3399V12.188H96.9839V11.628H97.7679V11.488H97.3199V11.348H97.2919V11.208H97.4039V10.928H98.1879V10.788H97.0959V10.508H97.4599V10.088H98.0479V9.948H97.6839V9.528H97.4319V9.388H97.2079V8.968H97.7399V8.408H96.8719V7.848H97.7399V7.428H96.8439V6.868H97.4319V6.728H97.7119V6.308H97.4039V5.888H97.3199V5.328H97.5439V4.908H98.3559V4.488H97.3199V4.208H96.6759V3.648H95.0519V3.088H97.9919V2.528H97.7399V1.968H96.5919V1.688H98.4959V1.548H97.3759V0.987999H97.0959V0.875999C97.0959 0.782666 97.1145 0.68 97.1519 0.568H97.4879C97.6185 0.269333 97.8519 0.119999 98.1879 0.119999H103.648C103.984 0.119999 104.217 0.269333 104.348 0.568H104.012C104.049 0.68 104.068 0.782666 104.068 0.875999V0.987999H104.348V1.548H105.468V1.688H103.564V1.968H104.712V2.528H104.964V3.088H102.024V3.648H103.648V4.208H104.292V4.488H105.328V4.908H104.516V5.328H104.292V5.888H104.376V6.308H104.684V6.728H105.356C105.449 6.65333 105.533 6.588 105.608 6.532C105.683 6.45733 105.767 6.38267 105.86 6.308H105.048C105.16 6.23333 105.263 6.15867 105.356 6.084C105.468 6.00933 105.589 5.944 105.72 5.888C106.187 5.62667 106.681 5.44 107.204 5.328H107.848C108.333 5.216 108.828 5.16 109.332 5.16C109.817 5.16 110.284 5.216 110.732 5.328H110.088C110.573 5.44 111.04 5.62667 111.488 5.888C111.581 5.944 111.684 6.00933 111.796 6.084C111.908 6.14 112.011 6.21467 112.104 6.308H112.888C112.981 6.38267 113.056 6.45733 113.112 6.532C113.187 6.588 113.261 6.65333 113.336 6.728H112.608C112.627 6.74667 112.645 6.76533 112.664 6.784C112.683 6.80267 112.701 6.83067 112.72 6.868H112.076C112.169 6.94267 112.244 7.036 112.3 7.148C112.375 7.24133 112.449 7.33467 112.524 7.428H113.448L113.7 7.848H112.832L113.084 8.408H113.98C114.017 8.48267 114.055 8.576 114.092 8.688C114.129 8.78133 114.157 8.87467 114.176 8.968H113.644C113.681 9.04267 113.7 9.11733 113.7 9.192C113.719 9.248 113.737 9.31333 113.756 9.388H113.98C113.999 9.42533 114.008 9.472 114.008 9.528H114.288L114.372 9.948H114.708C114.727 9.98533 114.736 10.032 114.736 10.088H114.176L114.204 10.368H113.924V10.508H114.372C114.391 10.5453 114.4 10.592 114.4 10.648C114.4 10.704 114.4 10.7507 114.4 10.788H115.184V10.928H114.26V11.208H114.232C114.251 11.2453 114.26 11.292 114.26 11.348H114.232V11.488H114.148V11.628H114.204V12.188H113.112V12.468H114.288V13.028H114.176V13.168H114.428V13.448H113.896V13.588H114.344V14.008H114.764V14.428H114.232V14.568H114.512V14.708H114.708V14.848H113.532V14.988H115.044V15.268H114.176V15.688H116.024V15.968ZM104.6 6.728H104.404V6.868H104.46C104.497 6.83067 104.525 6.80267 104.544 6.784C104.563 6.76533 104.581 6.74667 104.6 6.728ZM106.532 14.848H107.708V14.708H107.512V14.568H107.232V14.428H107.764V14.008H107.344V13.588H106.896V13.448H107.428V13.168H107.176V13.028H107.288V12.468H106.112V12.188H107.204V11.628H107.148V11.488H107.232C107.232 11.4507 107.223 11.4227 107.204 11.404C107.204 11.3853 107.204 11.3667 107.204 11.348H107.232C107.213 11.3107 107.204 11.264 107.204 11.208H107.232L107.148 10.928H108.072C108.035 10.8533 108.016 10.8067 108.016 10.788H107.232C107.213 10.732 107.176 10.6853 107.12 10.648C107.083 10.592 107.045 10.5453 107.008 10.508H106.56C106.485 10.4333 106.42 10.3867 106.364 10.368H106.672C106.467 10.2373 106.196 10.172 105.86 10.172C105.524 10.172 105.263 10.2373 105.076 10.368H105.048C105.011 10.3867 104.955 10.4333 104.88 10.508H104.516C104.479 10.5453 104.441 10.592 104.404 10.648C104.367 10.6853 104.329 10.732 104.292 10.788H105.356C105.319 10.8627 105.3 10.9093 105.3 10.928H104.516L104.432 11.208H104.292C104.292 11.264 104.283 11.3107 104.264 11.348H104.32V11.488H104.74V11.628H103.956V12.188H103.312V12.468H104.068V13.028H104.768V13.168H104.348V13.448H103.956V13.588H104.432V14.008H104.46V14.428H103.956V14.568H104.516V14.708H103.872V14.848H103.48V14.988H106.532V14.848ZM134.772 11.908C134.791 12.0013 134.8 12.0947 134.8 12.188C134.8 12.2813 134.8 12.3747 134.8 12.468H132.812V12.748H131.664V13.028H132.756V13.168H131.496V13.588H130.796V13.728H132.364C132.364 13.784 132.355 13.8307 132.336 13.868H132.252V14.008H132.504V14.036C132.504 14.1107 132.495 14.1947 132.476 14.288C132.476 14.3813 132.467 14.4747 132.448 14.568H132.252L132.168 15.128H132.588C132.588 15.2027 132.569 15.296 132.532 15.408H132.448C132.429 15.4827 132.411 15.5573 132.392 15.632C132.373 15.688 132.355 15.7533 132.336 15.828H132.56C132.541 15.9213 132.513 16.0147 132.476 16.108C132.439 16.2013 132.401 16.2947 132.364 16.388H131.944L131.832 16.668H131.888C131.851 16.7427 131.832 16.7893 131.832 16.808H131.72C131.645 16.9947 131.543 17.1813 131.412 17.368H131.468C131.449 17.4053 131.421 17.452 131.384 17.508C131.347 17.564 131.309 17.6107 131.272 17.648H131.244L130.908 18.068C130.889 18.0867 130.871 18.1053 130.852 18.124C130.833 18.1427 130.805 18.1707 130.768 18.208H130.628C130.553 18.2827 130.479 18.3573 130.404 18.432C130.329 18.488 130.245 18.5533 130.152 18.628H129.312L128.724 19.048H128.836C128.799 19.0667 128.761 19.0853 128.724 19.104C128.687 19.1227 128.649 19.1507 128.612 19.188H128.416C128.379 19.2067 128.332 19.2253 128.276 19.244C128.22 19.2627 128.173 19.2907 128.136 19.328H129.648C129.555 19.384 129.452 19.44 129.34 19.496C129.228 19.5333 129.116 19.5707 129.004 19.608H128.528C128.397 19.664 128.257 19.72 128.108 19.776C127.959 19.8133 127.809 19.8507 127.66 19.888H127.772C127.548 19.944 127.315 19.9907 127.072 20.028C126.829 20.084 126.577 20.1307 126.316 20.168H127.184C126.885 20.2053 126.577 20.2333 126.26 20.252C125.943 20.2707 125.616 20.28 125.28 20.28C124.925 20.28 124.589 20.2707 124.272 20.252C123.973 20.2333 123.665 20.2053 123.348 20.168H122.452C122.209 20.1307 121.957 20.084 121.696 20.028C121.453 19.9907 121.22 19.944 120.996 19.888H120.912C120.763 19.8507 120.613 19.8133 120.464 19.776C120.333 19.72 120.193 19.664 120.044 19.608H120.492C120.399 19.5707 120.296 19.5333 120.184 19.496C120.072 19.44 119.969 19.384 119.876 19.328H118.364L118.112 19.188H118.308L118.056 19.048H117.944C117.72 18.8987 117.524 18.7587 117.356 18.628H118.196C118.121 18.5533 118.047 18.488 117.972 18.432C117.897 18.3573 117.823 18.2827 117.748 18.208H117.888C117.869 18.1707 117.851 18.1427 117.832 18.124C117.813 18.1053 117.785 18.0867 117.748 18.068L117.412 17.648H117.44L117.244 17.368H117.188C117.057 17.1813 116.955 16.9947 116.88 16.808H116.964C116.927 16.7333 116.908 16.6867 116.908 16.668H116.824L116.712 16.388H117.132C117.113 16.2947 117.085 16.2013 117.048 16.108C117.011 16.0147 116.973 15.9213 116.936 15.828H116.712C116.693 15.7533 116.675 15.688 116.656 15.632C116.637 15.5573 116.619 15.4827 116.6 15.408H116.432L116.348 15.128H116.068L115.984 14.568H116.264C116.245 14.4747 116.227 14.3813 116.208 14.288C116.208 14.1947 116.208 14.1107 116.208 14.036V14.008H115.704V13.868H115.564C115.564 13.8307 115.555 13.8027 115.536 13.784C115.536 13.7653 115.536 13.7467 115.536 13.728H117.104C117.104 13.672 117.095 13.6253 117.076 13.588H115.508V13.168H116.18V13.028H116.516V12.748H117.104V12.468H115.396C115.396 12.3747 115.396 12.2813 115.396 12.188C115.396 12.0947 115.405 12.0013 115.424 11.908H115.06V11.628H117.832C117.851 11.572 117.86 11.4973 117.86 11.404V11.208H117.104C117.104 11.1333 117.104 11.068 117.104 11.012C117.123 10.9373 117.132 10.8627 117.132 10.788H117.412L117.496 10.228H116.572C116.591 10.1533 116.609 10.088 116.628 10.032C116.647 9.95733 116.665 9.88267 116.684 9.808H116.488C116.525 9.71467 116.553 9.62133 116.572 9.528C116.609 9.416 116.647 9.32267 116.684 9.248H116.712C116.731 9.21067 116.749 9.164 116.768 9.108C116.787 9.052 116.805 9.00533 116.824 8.968H116.796C116.796 8.94933 116.815 8.90267 116.852 8.828H116.992C117.067 8.64133 117.169 8.45467 117.3 8.268H116.74L116.908 7.988H117.944C117.963 7.95067 118 7.904 118.056 7.848H116.012C116.049 7.77333 116.096 7.708 116.152 7.652C116.227 7.57733 116.292 7.50267 116.348 7.428H116.992C117.085 7.33467 117.179 7.24133 117.272 7.148C117.384 7.036 117.487 6.94267 117.58 6.868H118.868C119.036 6.71867 119.232 6.57867 119.456 6.448H119.988C120.063 6.392 120.137 6.34533 120.212 6.308C120.305 6.252 120.389 6.20533 120.464 6.168H118.812C118.98 6.07467 119.185 5.98133 119.428 5.888H120.184C120.613 5.72 121.061 5.58 121.528 5.468H120.688C121.603 5.26267 122.573 5.16 123.6 5.16C124.627 5.16 125.597 5.26267 126.512 5.468H127.38C127.847 5.58 128.285 5.72 128.696 5.888H127.912C128.155 5.98133 128.36 6.07467 128.528 6.168H130.18C130.273 6.20533 130.357 6.252 130.432 6.308C130.525 6.34533 130.609 6.392 130.684 6.448H130.152L130.74 6.868H129.452C129.564 6.94267 129.667 7.036 129.76 7.148C129.872 7.24133 129.975 7.33467 130.068 7.428H129.424C129.48 7.50267 129.536 7.57733 129.592 7.652C129.667 7.708 129.723 7.77333 129.76 7.848H131.832L131.916 7.988H130.908L131.076 8.268H131.636C131.767 8.45467 131.869 8.64133 131.944 8.828H131.804C131.841 8.90267 131.86 8.94933 131.86 8.968H131.916L132.028 9.248H132C132.037 9.32267 132.075 9.416 132.112 9.528C132.149 9.62133 132.177 9.71467 132.196 9.808H132.476L132.56 10.228H132.392C132.429 10.3027 132.448 10.396 132.448 10.508C132.467 10.6013 132.485 10.6947 132.504 10.788H132.728C132.747 10.8627 132.756 10.9373 132.756 11.012C132.756 11.068 132.765 11.1333 132.784 11.208H131.692V11.404C131.692 11.4973 131.701 11.572 131.72 11.628H131.16V11.908H134.772ZM124.02 10.788C124.001 10.8627 123.983 10.9373 123.964 11.012C123.964 11.068 123.964 11.1333 123.964 11.208H124.748C124.729 11.264 124.72 11.32 124.72 11.376C124.72 11.432 124.72 11.488 124.72 11.544V11.628H124.832V11.544C124.832 11.488 124.823 11.432 124.804 11.376C124.804 11.32 124.804 11.264 124.804 11.208H125.896C125.896 11.1333 125.887 11.068 125.868 11.012C125.868 10.9373 125.868 10.8627 125.868 10.788H125.644C125.625 10.676 125.597 10.5733 125.56 10.48C125.541 10.3867 125.513 10.3027 125.476 10.228H125.672C125.597 10.06 125.485 9.92 125.336 9.808H125.056C124.869 9.696 124.627 9.64 124.328 9.64C124.029 9.64 123.796 9.696 123.628 9.808H123.824C123.749 9.864 123.684 9.92933 123.628 10.004C123.572 10.06 123.525 10.1347 123.488 10.228H124.412C124.393 10.3027 124.365 10.3867 124.328 10.48C124.309 10.5733 124.291 10.676 124.272 10.788H124.02ZM125.924 12.468H127.912V11.908H124.3C124.281 11.8333 124.272 11.74 124.272 11.628H121.948C121.948 11.74 121.939 11.8333 121.92 11.908H122.284V12.468H123.992V12.748H123.376V13.028H123.04V13.168H122.368C122.368 13.2427 122.368 13.3173 122.368 13.392C122.387 13.448 122.396 13.5133 122.396 13.588H124.608V13.168H125.868V13.028H124.776V12.748H125.924V12.468ZM125.476 13.868V13.728H122.424V13.868H122.564V13.896C122.564 13.9147 122.564 13.9333 122.564 13.952C122.583 13.9707 122.592 13.9893 122.592 14.008H123.068C123.087 14.1013 123.096 14.1947 123.096 14.288C123.096 14.3813 123.105 14.4747 123.124 14.568H122.844C122.881 14.8107 122.919 14.9973 122.956 15.128H123.264C123.301 15.24 123.339 15.3333 123.376 15.408H123.572C123.74 15.6693 124.057 15.8 124.524 15.8C124.991 15.8 125.308 15.6693 125.476 15.408H125.588C125.607 15.3707 125.625 15.3333 125.644 15.296C125.663 15.24 125.681 15.184 125.7 15.128H125.28C125.299 15.0347 125.317 14.9507 125.336 14.876C125.355 14.7827 125.373 14.68 125.392 14.568H125.588C125.607 14.4747 125.616 14.3813 125.616 14.288C125.616 14.1947 125.625 14.1013 125.644 14.008H125.392V13.868H125.476ZM148.817 12.328V12.608H152.373V12.888H150.217V13.168H149.209V13.448H150.077V13.616C150.077 13.728 150.067 13.812 150.049 13.868H150.441C150.31 14.204 150.067 14.372 149.713 14.372H141.369V14.428H142.489V14.512C142.489 14.5867 142.489 14.6707 142.489 14.764C142.489 14.8387 142.498 14.9133 142.517 14.988H141.005C141.005 15.044 141.005 15.1 141.005 15.156C141.023 15.1933 141.033 15.2307 141.033 15.268H140.865C140.865 15.3427 140.883 15.436 140.921 15.548H141.033C141.126 15.8093 141.275 15.996 141.481 16.108H140.725C140.855 16.1827 141.033 16.22 141.257 16.22C141.406 16.22 141.527 16.1827 141.621 16.108H142.937C143.011 16.0707 143.077 16.0147 143.133 15.94C143.207 15.8653 143.291 15.7907 143.385 15.716L143.553 15.548H143.021C143.189 15.3987 143.441 15.324 143.777 15.324H149.069C149.293 15.324 149.461 15.3987 149.573 15.548H150.077C150.17 15.6787 150.217 15.8093 150.217 15.94C150.198 15.9773 150.189 16.0333 150.189 16.108H148.873C148.835 16.2947 148.779 16.4813 148.705 16.668H147.333C147.277 16.7613 147.23 16.8547 147.193 16.948H150.665C150.627 17.0413 150.571 17.1347 150.497 17.228C150.441 17.3213 150.375 17.4147 150.301 17.508H149.461C149.386 17.62 149.311 17.7133 149.237 17.788H149.433C149.414 17.8067 149.395 17.8253 149.377 17.844C149.358 17.8627 149.339 17.8907 149.321 17.928H147.753L147.613 18.068H148.089C148.07 18.0867 148.042 18.1053 148.005 18.124C147.986 18.1427 147.967 18.1707 147.949 18.208H148.817C148.686 18.3387 148.518 18.4787 148.313 18.628H147.893C147.874 18.6467 147.846 18.6653 147.809 18.684C147.771 18.7027 147.734 18.7307 147.697 18.768H147.389C147.09 18.9733 146.763 19.16 146.409 19.328H146.045C145.821 19.44 145.578 19.5427 145.317 19.636C145.074 19.7293 144.813 19.8133 144.533 19.888H144.085C143.879 19.944 143.665 19.9907 143.441 20.028C143.217 20.084 142.974 20.1307 142.713 20.168H143.889C143.627 20.2053 143.357 20.2333 143.077 20.252C142.797 20.2707 142.498 20.28 142.181 20.28C141.882 20.28 141.583 20.2707 141.285 20.252C140.986 20.2333 140.697 20.2053 140.417 20.168H139.241C138.998 20.1307 138.765 20.084 138.541 20.028C138.317 19.9907 138.093 19.944 137.869 19.888H138.317C137.813 19.7573 137.337 19.5707 136.889 19.328H137.253C136.917 19.1413 136.627 18.9547 136.385 18.768H136.693C136.655 18.7307 136.618 18.7027 136.581 18.684C136.562 18.6653 136.534 18.6467 136.497 18.628H136.917C136.842 18.5533 136.767 18.488 136.693 18.432C136.618 18.3573 136.543 18.2827 136.469 18.208H135.573L135.433 18.068H134.957C134.938 18.0307 134.919 18.0027 134.901 17.984C134.882 17.9653 134.863 17.9467 134.845 17.928H136.385C136.366 17.8907 136.329 17.844 136.273 17.788H136.077C136.039 17.7507 136.002 17.704 135.965 17.648C135.927 17.592 135.89 17.5453 135.853 17.508H136.693C136.637 17.4147 136.581 17.3213 136.525 17.228C136.469 17.1347 136.413 17.0413 136.357 16.948H132.857C132.801 16.8547 132.754 16.7613 132.717 16.668H134.089L133.837 16.108H134.593C134.555 16.0147 134.518 15.9213 134.481 15.828C134.462 15.7347 134.434 15.6413 134.397 15.548H134.313L134.229 15.268H134.425L134.341 14.988H135.853C135.834 14.8947 135.815 14.8013 135.797 14.708C135.778 14.6147 135.759 14.5213 135.741 14.428H134.621L134.565 13.868H134.173C134.173 13.7933 134.163 13.728 134.145 13.672C134.145 13.5973 134.145 13.5227 134.145 13.448H133.277V13.168H134.257V12.888H136.413V12.608H132.857V12.552C132.857 12.4587 132.866 12.384 132.885 12.328H137.729C137.729 12.2533 137.729 12.188 137.729 12.132C137.747 12.0573 137.757 11.9827 137.757 11.908H133.305C133.305 11.8707 133.305 11.8427 133.305 11.824C133.323 11.8053 133.333 11.7867 133.333 11.768H135.181C135.181 11.712 135.19 11.6653 135.209 11.628H137.281V11.488H133.333C133.351 11.3947 133.37 11.3013 133.389 11.208C133.407 11.1147 133.426 11.0213 133.445 10.928H134.509C134.509 10.8533 134.527 10.76 134.565 10.648H133.641C133.641 10.6107 133.641 10.5827 133.641 10.564C133.659 10.5453 133.669 10.5267 133.669 10.508H134.341C134.341 10.4707 134.341 10.4427 134.341 10.424C134.359 10.4053 134.369 10.3867 134.369 10.368H133.669L133.725 10.228H134.397L134.481 9.948H135.013L135.181 9.528H134.677C134.714 9.43467 134.751 9.34133 134.789 9.248C134.826 9.136 134.873 9.04267 134.929 8.968H134.845L134.901 8.828H134.201C134.238 8.75333 134.257 8.70667 134.257 8.688H133.613L133.781 8.408H135.153C135.171 8.37067 135.209 8.324 135.265 8.268H135.769C135.843 8.17467 135.909 8.08133 135.965 7.988C136.039 7.876 136.114 7.78267 136.189 7.708H135.685C135.741 7.63333 135.797 7.568 135.853 7.512C135.927 7.43733 136.002 7.36267 136.077 7.288H137.169L137.449 7.008H135.797C136.039 6.80267 136.282 6.616 136.525 6.448H138.065L138.289 6.308H137.785C137.934 6.21467 138.111 6.12133 138.317 6.028H139.409C139.913 5.78533 140.435 5.59867 140.977 5.468H139.409C139.819 5.37467 140.249 5.3 140.697 5.244C141.145 5.188 141.611 5.16 142.097 5.16C142.582 5.16 143.039 5.188 143.469 5.244C143.898 5.3 144.309 5.37467 144.701 5.468H146.241C146.521 5.54267 146.782 5.62667 147.025 5.72C147.286 5.81333 147.538 5.916 147.781 6.028H146.689C146.782 6.06533 146.866 6.112 146.941 6.168C147.034 6.20533 147.118 6.252 147.193 6.308H147.697C147.734 6.32667 147.771 6.34533 147.809 6.364C147.846 6.38267 147.883 6.41067 147.921 6.448H146.381C146.623 6.616 146.866 6.80267 147.109 7.008H148.789L149.069 7.288H147.977C148.051 7.36267 148.117 7.43733 148.173 7.512C148.247 7.568 148.313 7.63333 148.369 7.708H148.873C148.947 7.78267 149.013 7.876 149.069 7.988C149.143 8.08133 149.218 8.17467 149.293 8.268H148.761C148.779 8.30533 148.817 8.352 148.873 8.408H147.473L147.641 8.688H148.285L148.369 8.828H149.097C149.097 8.84667 149.115 8.89333 149.153 8.968H149.237L149.489 9.528L149.657 9.948H149.685L149.769 10.228H149.433L149.489 10.368H149.741L149.797 10.508H150.245C150.245 10.5267 150.245 10.5453 150.245 10.564C150.263 10.5827 150.273 10.6107 150.273 10.648H150.049L150.133 10.928H149.069L149.153 11.488H153.101V11.628H151.029C151.029 11.6467 151.029 11.6653 151.029 11.684C151.047 11.7027 151.057 11.7307 151.057 11.768H149.181C149.199 11.8053 149.209 11.852 149.209 11.908H153.661C153.661 11.9827 153.661 12.0573 153.661 12.132C153.661 12.188 153.67 12.2533 153.689 12.328H148.817ZM140.305 10.508V10.648H141.201V10.872H143.441V10.648H143.637V10.508H143.189V10.368H142.909C142.909 10.312 142.899 10.2653 142.881 10.228H143.217C143.217 10.1533 143.198 10.06 143.161 9.948H143.133C143.114 9.78 143.058 9.64 142.965 9.528C142.778 9.22933 142.489 9.08 142.097 9.08C141.723 9.08 141.443 9.22933 141.257 9.528H141.761C141.686 9.64 141.63 9.78 141.593 9.948H141.033C141.033 9.98533 141.023 10.032 141.005 10.088C141.005 10.1253 140.995 10.172 140.977 10.228H140.305C140.305 10.284 140.295 10.3307 140.277 10.368H140.977V10.508H140.305Z" fill="white"/>
</svg>
