<svg width="84" height="39" viewBox="0 0 84 39" fill="none" xmlns="http://www.w3.org/2000/svg">
<path d="M45.2665 9.46744C45.3355 9.60539 45.4044 9.74335 45.4734 9.88131C45.5424 9.98477 45.5941 10.1055 45.6286 10.2434H43.7145C43.7834 10.3814 43.8524 10.5538 43.9214 10.7608C43.9904 10.9332 44.0594 11.1057 44.1283 11.2781H36.0061L36.3165 12.3128H40.507L40.6622 13.0888H40.0931C40.1276 13.1578 40.1448 13.244 40.1448 13.3475C40.1448 13.4509 40.1621 13.5372 40.1966 13.6061H38.7998L38.8515 14.1235H39.9379C39.9379 14.2614 39.9379 14.3994 39.9379 14.5373C39.9724 14.6408 39.9896 14.7615 39.9896 14.8995H41.9038C41.9383 15.0374 41.9555 15.1581 41.9555 15.2616C41.9555 15.3651 41.9555 15.4858 41.9555 15.6238V15.6755H37.0925C37.0925 15.8479 37.0925 16.0204 37.0925 16.1928C37.127 16.3653 37.1443 16.5377 37.1443 16.7102H38.2307C38.2307 16.8826 38.2307 17.0551 38.2307 17.2275C38.2652 17.3999 38.2824 17.5724 38.2824 17.7448H40.1448V18.0035H39.4206V19.0382H39.6275V19.8142H42.6798V20.8489H39.7827V21.3662H39.4723C39.4723 21.4352 39.4723 21.5214 39.4723 21.6249C39.4723 21.7283 39.455 21.8146 39.4206 21.8835H38.4894V22.9182H38.5928C38.5583 23.0217 38.5411 23.1596 38.5411 23.3321V23.4355H40.4552C40.4552 23.5735 40.438 23.7115 40.4035 23.8494C40.4035 23.9529 40.4035 24.0736 40.4035 24.2116H41.1795C41.1795 24.384 41.1623 24.5564 41.1278 24.7289C41.1278 24.9013 41.1105 25.0738 41.076 25.2462H39.9379C39.9034 25.3152 39.8862 25.4014 39.8862 25.5049C39.8862 25.6084 39.8689 25.6946 39.8344 25.7636H33.6264C33.6264 25.9015 33.5919 26.074 33.5229 26.2809H38.955C38.886 26.4878 38.8515 26.6603 38.8515 26.7982H39.6275C39.593 26.9362 39.5585 27.0742 39.524 27.2121C39.524 27.3156 39.4895 27.4363 39.4206 27.5742L39.2654 28.0916H37.7651L37.6616 28.3503H40.0931C40.0241 28.4882 39.9896 28.5744 39.9896 28.6089H38.4376L38.3341 28.8676H38.2824C38.2134 29.04 38.1445 29.2125 38.0755 29.3849C38.0065 29.5574 37.9203 29.7298 37.8168 29.9023H37.0408L36.4717 30.9369H37.3512L37.0408 31.4543H37.0925C37.0236 31.5233 36.9546 31.6095 36.8856 31.7129C36.8166 31.8164 36.7476 31.9026 36.6787 31.9716H36.3165C36.2131 32.0751 36.1441 32.1613 36.1096 32.2303C36.0061 32.3682 35.9027 32.5062 35.7992 32.6442C35.6957 32.7476 35.575 32.8683 35.4371 33.0063H35.2819C35.1094 33.1787 34.9197 33.3512 34.7128 33.5236C34.5403 33.6961 34.3507 33.8685 34.1437 34.041H34.6093L33.5229 34.817H33.5746C33.2987 34.9894 33.0056 35.1619 32.6952 35.3343C32.3848 35.5068 32.0571 35.6792 31.7122 35.8516H31.6605C31.3156 36.0241 30.8845 36.1965 30.3672 36.369H30.4189C29.7291 36.6104 29.0048 36.8173 28.2461 36.9898C27.4873 37.1622 26.7113 37.3002 25.9181 37.4037H27.0045C26.4526 37.4726 25.8836 37.5244 25.2972 37.5589C24.7109 37.5934 24.1074 37.6106 23.4866 37.6106H8.32858C8.01817 37.6106 7.77675 37.5416 7.6043 37.4037H6.51789C6.173 37.1967 5.96607 36.8518 5.89709 36.369H5.84536V35.8516H5.94882V34.817H5.84536V34.041H5.43149V33.0063H5.58669V32.2303H5.53495V31.9716H5.94882V31.4543H5.89709V30.9369H4.96588V29.9023H5.79362V28.8676H5.84536V28.6089H7.39737V28.3503H5.01762V28.0916H6.51789V26.7982H5.79362V26.2809H5.74189V25.7636H7.08697V25.2462H1.13759V24.2116H0.93065V23.4355H1.60319V22.9182H3.72427V21.8835H5.06935V21.3662H5.84536V20.8489H6.6731V19.8142H7.86297V19.0382H9.00111V18.0035H5.53495V17.7448H4.39681V16.7102H2.12053V15.6755H8.01817V14.8995H3.4656V14.1235H5.94882V13.6061H5.84536V13.0888H5.43149V12.3128H3.20693V11.2781H11.2774V10.2434H13.1915V9.46744H3.87947V8.43276H9.98406V8.17409H5.17282V7.91543H14.9505V6.88075H13.7089V6.62208H1.39625V5.58741H2.89653V4.8114H6.10402V4.55273H7.81124V4.03539H6.88003V3.77672H5.79362V3.25939H5.89709V2.79378C5.89709 2.72481 5.89709 2.67307 5.89709 2.63858C5.93158 2.5696 5.94882 2.51787 5.94882 2.48338H6.15576C6.3282 1.75911 6.79381 1.39697 7.55257 1.39697H22.4519C25.1076 1.39697 27.5218 1.75911 29.6946 2.48338H29.4877C30.1085 2.69032 30.7465 2.94898 31.4018 3.25939H31.2984C31.4708 3.32836 31.6433 3.41459 31.8157 3.51806C32.0226 3.58703 32.1951 3.67326 32.333 3.77672H33.4194L33.885 4.03539H34.7645C34.937 4.10437 35.0749 4.19059 35.1784 4.29406C35.3163 4.39753 35.4543 4.48375 35.5923 4.55273H33.885C33.954 4.58722 34.023 4.62171 34.092 4.6562C34.161 4.69069 34.2127 4.74242 34.2472 4.8114H31.0397L32.0226 5.58741H30.4706C30.85 5.89781 31.1949 6.2427 31.5053 6.62208H43.8179C43.8524 6.65657 43.8869 6.69106 43.9214 6.72555C43.9559 6.76004 43.9904 6.81177 44.0249 6.88075H45.3182C45.4562 7.01871 45.5941 7.19115 45.7321 7.39809C45.87 7.57053 45.9907 7.74298 46.0942 7.91543H36.3165C36.351 7.94991 36.3855 7.9844 36.42 8.01889C36.4545 8.05338 36.489 8.10511 36.5235 8.17409H41.3347L41.4899 8.43276H35.3853C35.6268 8.77765 35.8164 9.12255 35.9544 9.46744H45.2665ZM27.0045 13.0888C26.7975 12.7784 26.5389 12.5197 26.2285 12.3128H22.038C21.2793 11.761 20.3481 11.4851 19.2444 11.4851H16.1404V12.3128H18.3649V13.0888H18.7788V13.6061H18.8823V14.1235H16.399V14.8995H20.9516V15.6755H15.054V16.7102H17.3302V17.7448H18.4684V18.0035H21.9346V19.0382H20.7964V19.8142H19.6065V20.8489H18.7788V21.3662H18.0028V21.8835H16.6577V22.9182H14.5366V23.4355H13.8641V24.2116H14.071V25.2462H20.0204V25.7636H18.6753V26.2809H18.7271V26.7982H19.4513V27.5225H22.814C23.8142 27.5225 24.6592 27.2811 25.349 26.7982H24.5212C24.6247 26.7293 24.7282 26.6603 24.8316 26.5913C24.9351 26.4878 25.0213 26.3844 25.0903 26.2809H19.71C19.779 26.2119 19.848 26.1429 19.9169 26.074C19.9859 25.9705 20.0376 25.867 20.0721 25.7636H26.2802C26.3492 25.6946 26.4009 25.6256 26.4354 25.5566C26.4699 25.4532 26.5044 25.3497 26.5389 25.2462H27.7287C27.7977 25.0738 27.8494 24.9013 27.8839 24.7289C27.9184 24.5564 27.9529 24.384 27.9874 24.2116H27.2114C27.2459 24.0736 27.2631 23.9529 27.2631 23.8494C27.2631 23.7115 27.2804 23.5735 27.3149 23.4355H25.4007V23.3321C25.4007 23.2631 25.4007 23.1941 25.4007 23.1251C25.4352 23.0562 25.4524 22.9872 25.4524 22.9182H25.349C25.349 22.7458 25.349 22.5733 25.349 22.4009C25.349 22.1939 25.3662 22.0215 25.4007 21.8835H26.3319V21.3662H26.6423L26.6941 20.8489H29.5911V19.8142H26.5389V19.0382H26.3319V18.0035H27.0562V17.7448H25.142V16.7102H24.0039C24.0039 16.5377 24.0039 16.3653 24.0039 16.1928C24.0039 16.0204 23.9867 15.8479 23.9522 15.6755H28.8151V15.6238C28.8151 15.4858 28.7979 15.3651 28.7634 15.2616C28.7634 15.1237 28.7634 15.0029 28.7634 14.8995H26.8493C26.8148 14.7615 26.7803 14.6408 26.7458 14.5373C26.7113 14.3994 26.6768 14.2614 26.6423 14.1235H25.5559C25.5214 14.02 25.4869 13.9338 25.4524 13.8648C25.418 13.7613 25.3835 13.6751 25.349 13.6061H26.7458C26.7113 13.5027 26.6596 13.4164 26.5906 13.3475C26.5561 13.244 26.5044 13.1578 26.4354 13.0888H27.0045ZM76.0602 32.489H73.9391L73.4735 33.0063H81.3888C81.3543 33.0408 81.3198 33.0753 81.2853 33.1098C81.2508 33.1442 81.1991 33.196 81.1301 33.265H68.9209C68.7485 33.4374 68.5588 33.6099 68.3518 33.7823C68.1794 33.9547 67.9897 34.1272 67.7828 34.2996H71.5593L70.8868 34.817H77.9226L77.5087 35.0756H74.4564C74.4219 35.1101 74.353 35.1446 74.2495 35.1791C74.1805 35.2136 74.1115 35.2653 74.0426 35.3343H70.5764L69.1279 36.1103H71.1455C70.6971 36.3173 70.2488 36.5069 69.8004 36.6794C69.352 36.8173 68.8864 36.9725 68.4036 37.145H66.5412C65.3685 37.4899 64.0924 37.7486 62.7129 37.921H62.9715C62.4197 37.99 61.8506 38.0417 61.2643 38.0762C60.678 38.1107 60.0917 38.1279 59.5054 38.1279C58.8501 38.1279 58.1948 38.1107 57.5395 38.0762C56.9187 38.0417 56.3151 37.99 55.7288 37.921H55.5219C54.0388 37.7486 52.711 37.4899 51.5384 37.145H53.4008C52.8835 36.9725 52.4006 36.8173 51.9522 36.6794C51.5039 36.5069 51.0555 36.3173 50.6072 36.1103H48.5896C48.3481 35.9724 48.1067 35.8516 47.8653 35.7482C47.6239 35.6102 47.3824 35.4723 47.141 35.3343H50.6589L50.245 35.0756H53.2973C53.2628 35.0067 53.2111 34.9549 53.1421 34.9204C53.0731 34.886 53.0042 34.8515 52.9352 34.817H45.8994C45.7614 34.748 45.6407 34.6618 45.5373 34.5583C45.4338 34.4548 45.3303 34.3686 45.2269 34.2996H41.3986C41.2261 34.1272 41.0537 33.9547 40.8812 33.7823C40.6743 33.6099 40.4846 33.4374 40.3122 33.265H52.5213C52.4868 33.196 52.4523 33.1442 52.4179 33.1098C52.3834 33.0753 52.3489 33.0408 52.3144 33.0063H44.3991C44.2612 32.8683 44.1232 32.6959 43.9853 32.489H46.1063C46.0718 32.42 46.0374 32.3682 46.0029 32.3338C45.9684 32.2993 45.9339 32.2648 45.8994 32.2303H52.3661L51.9005 31.4543H48.693L48.5378 31.1956H41.2434C41.2089 31.0577 41.1571 30.9369 41.0882 30.8335C41.0192 30.6955 40.9502 30.5576 40.8812 30.4196H44.3474L44.037 29.6436H42.7954L42.6919 29.3849H43.261C43.2265 29.247 43.192 29.1263 43.1575 29.0228C43.123 28.8848 43.0885 28.7469 43.054 28.6089H42.6402C42.6402 28.471 42.6229 28.3503 42.5884 28.2468C42.5884 28.1088 42.5712 27.9709 42.5367 27.8329H42.1228C42.1228 27.695 42.1056 27.5742 42.0711 27.4708C42.0711 27.3673 42.0711 27.2466 42.0711 27.1086V27.0569H42.0194C42.0194 26.9879 42.0194 26.9362 42.0194 26.9017C42.0539 26.8672 42.0711 26.8327 42.0711 26.7982H43.261C43.4334 26.2464 43.7956 25.9705 44.3474 25.9705H54.1768C54.7286 25.9705 55.1425 26.0395 55.4184 26.1774C55.6943 26.3154 56.0047 26.5223 56.3496 26.7982H55.1597L55.2115 26.85C55.2805 26.8845 55.3322 26.919 55.3667 26.9534C55.4357 26.9879 55.4874 27.0224 55.5219 27.0569H55.5736C56.022 27.4018 56.5738 27.6605 57.2291 27.8329H57.6947C58.1431 27.9709 58.7466 28.0399 59.5054 28.0399C59.9537 28.0399 60.3676 28.0226 60.747 27.9881C61.1264 27.9536 61.454 27.9019 61.7299 27.8329H61.5747C62.368 27.6605 62.8681 27.4018 63.075 27.0569H62.9715C63.0405 26.919 63.075 26.8327 63.075 26.7982H63.5923L63.6441 26.5913C63.6441 26.2809 63.5234 26.005 63.2819 25.7636H62.8681C62.5577 25.4532 62.0058 25.1945 61.2126 24.9876H61.0574C60.747 24.8841 60.3849 24.7979 59.971 24.7289C59.5571 24.6254 59.0743 24.5392 58.5224 24.4702H58.212L56.0909 24.1598C55.8495 24.1253 55.6081 24.0908 55.3667 24.0564C55.1597 24.0219 54.9356 23.9874 54.6941 23.9529C53.2801 23.7115 51.9178 23.3666 50.6072 22.9182H49.676C49.1931 22.7458 48.7448 22.5733 48.3309 22.4009H47.6066C47.4342 22.3319 47.2617 22.2629 47.0893 22.1939C46.9168 22.0905 46.7444 21.987 46.5719 21.8835H42.0711C41.8297 21.7456 41.6055 21.6249 41.3986 21.5214C41.1916 21.3834 40.9847 21.2455 40.7778 21.1075H50.4002C50.2278 20.9696 50.0553 20.8489 49.8829 20.7454C49.7449 20.6074 49.5897 20.4695 49.4173 20.3315H39.1223C39.0188 20.2625 38.9326 20.1763 38.8636 20.0729C38.7601 19.9694 38.6739 19.8832 38.6049 19.8142H41.2951C40.9847 19.4693 40.6915 19.1244 40.4156 18.7795H41.1916L40.8812 18.2622H35.9148C35.8803 18.1932 35.8458 18.1415 35.8113 18.107C35.7768 18.0725 35.7596 18.038 35.7596 18.0035H47.5549C47.4859 17.8655 47.4169 17.7448 47.3479 17.6414C47.279 17.5034 47.21 17.3655 47.141 17.2275H38.0876L37.7772 16.4515H45.0717L44.9682 16.1928H42.7954L42.6919 15.9342H43.7266C43.7266 15.8652 43.7093 15.8134 43.6748 15.779C43.6748 15.7445 43.6748 15.71 43.6748 15.6755H43.4679L43.3127 15.1581H43.0023L42.9506 14.6408H42.8471V14.3821H41.1916C41.1571 14.3132 41.1399 14.2269 41.1399 14.1235C41.1399 14.02 41.1399 13.9338 41.1399 13.8648H39.6396L39.5879 13.3475H45.4855C45.451 13.2785 45.4338 13.1923 45.4338 13.0888C45.4338 12.9853 45.4338 12.8991 45.4338 12.8301H46.2615V12.7784C46.2615 12.606 46.2615 12.4335 46.2615 12.2611C46.2615 12.0886 46.2788 11.9334 46.3133 11.7955H44.0887C44.1232 11.6575 44.1405 11.5368 44.1405 11.4333C44.1405 11.2954 44.1577 11.1574 44.1922 11.0195H47.8135C47.8135 10.9505 47.8135 10.8987 47.8135 10.8642C47.848 10.8298 47.8653 10.7953 47.8653 10.7608H44.1922C44.2612 10.5538 44.2957 10.3814 44.2957 10.2434H43.7266L43.8818 9.72611H43.0023C43.1058 9.34673 43.2265 9.00183 43.3644 8.69143H43.7783L43.9853 8.17409H44.5543L45.0199 7.39809H44.5026C44.6061 7.26013 44.6923 7.13942 44.7613 7.03595C44.8647 6.89799 44.9509 6.76004 45.0199 6.62208H44.6061L45.2269 5.84607H46.3133C46.3478 5.7771 46.3822 5.72536 46.4167 5.69087C46.4512 5.65638 46.4857 5.62189 46.5202 5.58741H45.0717C45.2096 5.44945 45.3476 5.32874 45.4855 5.22527C45.6235 5.08731 45.7614 4.94936 45.8994 4.8114H46.7271C46.9341 4.63895 47.141 4.46651 47.3479 4.29406C47.5549 4.08713 47.7791 3.91468 48.0205 3.77672H48.9517C49.1586 3.63877 49.3656 3.51806 49.5725 3.41459C49.7794 3.27663 50.0036 3.13868 50.245 3.00072H50.0898C50.1588 2.93174 50.245 2.88001 50.3485 2.84552C50.452 2.81103 50.5382 2.77654 50.6072 2.74205H49.8829C49.9519 2.67307 50.0381 2.62134 50.1416 2.58685C50.245 2.55236 50.3485 2.51787 50.452 2.48338H49.9346C50.4175 2.27644 50.9176 2.08675 51.4349 1.91431C51.9867 1.74186 52.5386 1.58666 53.0904 1.4487H53.8664C54.6596 1.27626 55.4874 1.1383 56.3496 1.03484C57.2463 0.931368 58.1775 0.879634 59.1432 0.879634C60.9712 0.879634 62.6956 1.06932 64.3166 1.4487H63.5923C64.696 1.69013 65.7652 2.03502 66.7998 2.48338H67.2654C67.3689 2.51787 67.4724 2.55236 67.5758 2.58685C67.6793 2.62134 67.7828 2.67307 67.8862 2.74205H68.6105C68.6795 2.77654 68.7657 2.81103 68.8692 2.84552C68.9727 2.88001 69.0589 2.93174 69.1279 3.00072H69.2831C69.5245 3.13868 69.7487 3.27663 69.9556 3.41459C70.197 3.51806 70.4212 3.63877 70.6281 3.77672H69.7487C70.0246 3.91468 70.266 4.08713 70.4729 4.29406C70.7144 4.46651 70.9385 4.63895 71.1455 4.8114H70.3695L71.1972 5.58741H72.6457L72.9044 5.84607H71.818C71.956 5.98403 72.0767 6.12199 72.1801 6.25995C72.3181 6.36341 72.4388 6.48412 72.5423 6.62208H72.9562L73.577 7.39809H74.0426L74.5082 8.17409H73.9391C74.0426 8.34654 74.1288 8.51899 74.1978 8.69143H73.7839C73.8874 8.86388 73.9736 9.03632 74.0426 9.20877C74.1115 9.38121 74.1805 9.55366 74.2495 9.72611H75.129C75.1979 9.93304 75.2324 10.1055 75.2324 10.2434H75.8532C75.8877 10.3124 75.905 10.3986 75.905 10.5021C75.905 10.6056 75.9222 10.6918 75.9567 10.7608H79.6298V11.0195H76.3188C76.3533 11.1574 76.3706 11.3471 76.3706 11.5885V11.7955H74.4564C74.3185 12.4163 73.9736 12.7267 73.4218 12.7267H63.075C62.5922 12.7267 62.1955 12.6577 61.8851 12.5197C61.6092 12.3818 61.3161 12.1748 61.0057 11.8989L60.8505 11.7955H62.7646C62.5922 11.6575 62.3507 11.5195 62.0403 11.3816C61.7299 11.2091 61.3333 11.0884 60.8505 11.0195H58.988C58.2638 11.1229 57.7637 11.3816 57.4878 11.7955H59.7123C59.6088 12.0024 59.5571 12.2093 59.5571 12.4163C59.5571 12.5887 59.5744 12.7267 59.6088 12.8301H58.8328C58.8673 13.0026 59.0053 13.175 59.2467 13.3475H53.4008C53.6077 13.5199 53.9699 13.6924 54.4872 13.8648H55.9875C56.2634 13.9683 56.591 14.0717 56.9704 14.1752C57.3843 14.2442 57.8154 14.3132 58.2638 14.3821H59.9192C60.1952 14.4166 60.4883 14.4511 60.7987 14.4856C61.1091 14.5201 61.4368 14.5718 61.7817 14.6408H61.8334C62.4197 14.7098 62.9888 14.796 63.5406 14.8995C64.0924 14.9685 64.6098 15.0547 65.0926 15.1581H65.403C65.8169 15.2271 66.1963 15.3134 66.5412 15.4168C66.9205 15.4858 67.2827 15.572 67.6276 15.6755H67.8345C68.007 15.71 68.1622 15.7445 68.3001 15.779C68.4381 15.8134 68.576 15.8652 68.714 15.9342H67.731C67.869 15.9686 67.9897 16.0031 68.0932 16.0376C68.2311 16.0721 68.3691 16.1238 68.507 16.1928H70.6799C70.7833 16.2273 70.8868 16.2618 70.9903 16.2963C71.1282 16.3308 71.2489 16.3825 71.3524 16.4515H64.0579C64.7477 16.7274 65.2996 16.9861 65.7134 17.2275H74.7668C74.9738 17.3655 75.1807 17.5034 75.3876 17.6414C75.5946 17.7448 75.7843 17.8655 75.9567 18.0035H64.1614C64.2304 18.038 64.2994 18.0725 64.3683 18.107C64.4373 18.1415 64.4891 18.1932 64.5236 18.2622H69.49C69.5935 18.3312 69.6969 18.4174 69.8004 18.5208C69.9039 18.6243 69.9901 18.7105 70.0591 18.7795H69.2831C69.6279 19.0899 69.9211 19.4348 70.1625 19.8142H67.4724C67.5414 19.8832 67.6103 19.9694 67.6793 20.0729C67.7483 20.1763 67.8 20.2625 67.8345 20.3315H78.0778L78.5434 21.1075H68.9209C68.9899 21.2455 69.0589 21.3834 69.1279 21.5214C69.1968 21.6249 69.2486 21.7456 69.2831 21.8835H73.7322L73.8874 22.4009H74.6116L74.7668 22.9182H75.698C75.767 23.0562 75.8015 23.2286 75.8015 23.4355C75.836 23.608 75.8705 23.7804 75.905 23.9529L75.9567 24.4702H76.2671C76.3016 24.5392 76.3188 24.6254 76.3188 24.7289C76.3188 24.8324 76.3188 24.9186 76.3188 24.9876H76.474V25.7636H76.9396V25.9188C76.9396 26.0567 76.9224 26.1947 76.8879 26.3326C76.8879 26.4706 76.8879 26.6258 76.8879 26.7982H76.3706V27.0569H76.474C76.474 27.1949 76.4568 27.3328 76.4223 27.4708C76.4223 27.5742 76.4051 27.695 76.3706 27.8329H76.5258L76.3706 28.6089H76.7844C76.75 28.7469 76.7155 28.8848 76.681 29.0228C76.6465 29.1263 76.5948 29.247 76.5258 29.3849H75.9567C75.9567 29.4194 75.9395 29.4539 75.905 29.4884C75.905 29.5229 75.905 29.5746 75.905 29.6436H77.1466L76.8362 30.4196H73.37C73.3355 30.5576 73.2666 30.6955 73.1631 30.8335C73.0941 30.9369 73.0251 31.0577 72.9562 31.1956H80.2506L80.0954 31.4543H83.2512C83.1822 31.5922 83.096 31.7302 82.9925 31.8681C82.9235 31.9716 82.8373 32.0923 82.7338 32.2303H76.2671C76.2326 32.2648 76.1981 32.2993 76.1636 32.3338C76.1292 32.3682 76.0947 32.42 76.0602 32.489ZM62.6094 11.0195H64.1614C64.0579 10.985 63.9372 10.9677 63.7993 10.9677C63.6958 10.9677 63.5751 10.9677 63.4371 10.9677C63.2992 10.9677 63.1612 10.9677 63.0233 10.9677C62.8853 10.9677 62.7474 10.985 62.6094 11.0195Z" fill="white"/>
</svg>
