<svg width="50" height="46" viewBox="0 0 50 46" fill="none" xmlns="http://www.w3.org/2000/svg">
<rect width="50" height="46" rx="6" fill="#161819"/>
<path d="M27.242 17.856C27.2767 17.9253 27.3113 17.9947 27.346 18.064C27.3807 18.116 27.4067 18.1767 27.424 18.246H26.462C26.4967 18.3153 26.5313 18.402 26.566 18.506C26.6007 18.5927 26.6353 18.6793 26.67 18.766H22.588L22.744 19.286H24.85L24.928 19.676H24.642C24.6593 19.7107 24.668 19.754 24.668 19.806C24.668 19.858 24.6767 19.9013 24.694 19.936H23.992L24.018 20.196H24.564C24.564 20.2653 24.564 20.3347 24.564 20.404C24.5813 20.456 24.59 20.5167 24.59 20.586H25.552C25.5693 20.6553 25.578 20.716 25.578 20.768C25.578 20.82 25.578 20.8807 25.578 20.95V20.976H23.134C23.134 21.0627 23.134 21.1493 23.134 21.236C23.1513 21.3227 23.16 21.4093 23.16 21.496H23.706C23.706 21.5827 23.706 21.6693 23.706 21.756C23.7233 21.8427 23.732 21.9293 23.732 22.016H24.668V22.146H24.304V22.666H24.408V23.056H25.942V23.576H24.486V23.836H24.33C24.33 23.8707 24.33 23.914 24.33 23.966C24.33 24.018 24.3213 24.0613 24.304 24.096H23.836V24.616H23.888C23.8707 24.668 23.862 24.7373 23.862 24.824V24.876H24.824C24.824 24.9453 24.8153 25.0147 24.798 25.084C24.798 25.136 24.798 25.1967 24.798 25.266H25.188C25.188 25.3527 25.1793 25.4393 25.162 25.526C25.162 25.6127 25.1533 25.6993 25.136 25.786H24.564C24.5467 25.8207 24.538 25.864 24.538 25.916C24.538 25.968 24.5293 26.0113 24.512 26.046H21.392C21.392 26.1153 21.3747 26.202 21.34 26.306H24.07C24.0353 26.41 24.018 26.4967 24.018 26.566H24.408C24.3907 26.6353 24.3733 26.7047 24.356 26.774C24.356 26.826 24.3387 26.8867 24.304 26.956L24.226 27.216H23.472L23.42 27.346H24.642C24.6073 27.4153 24.59 27.4587 24.59 27.476H23.81L23.758 27.606H23.732C23.6973 27.6927 23.6627 27.7793 23.628 27.866C23.5933 27.9527 23.55 28.0393 23.498 28.126H23.108L22.822 28.646H23.264L23.108 28.906H23.134C23.0993 28.9407 23.0647 28.984 23.03 29.036C22.9953 29.088 22.9607 29.1313 22.926 29.166H22.744C22.692 29.218 22.6573 29.2613 22.64 29.296C22.588 29.3653 22.536 29.4347 22.484 29.504C22.432 29.556 22.3713 29.6167 22.302 29.686H22.224C22.1373 29.7727 22.042 29.8593 21.938 29.946C21.8513 30.0327 21.756 30.1193 21.652 30.206H21.886L21.34 30.596H21.366C21.2273 30.6827 21.08 30.7693 20.924 30.856C20.768 30.9427 20.6033 31.0293 20.43 31.116H20.404C20.2307 31.2027 20.014 31.2893 19.754 31.376H19.78C19.4333 31.4973 19.0693 31.6013 18.688 31.688C18.3067 31.7747 17.9167 31.844 17.518 31.896H18.064C17.7867 31.9307 17.5007 31.9567 17.206 31.974C16.9113 31.9913 16.608 32 16.296 32H8.678C8.522 32 8.40067 31.9653 8.314 31.896H7.768C7.59467 31.792 7.49067 31.6187 7.456 31.376H7.43V31.116H7.482V30.596H7.43V30.206H7.222V29.686H7.3V29.296H7.274V29.166H7.482V28.906H7.456V28.646H6.988V28.126H7.404V27.606H7.43V27.476H8.21V27.346H7.014V27.216H7.768V26.566H7.404V26.306H7.378V26.046H8.054V25.786H5.064V25.266H4.96V24.876H5.298V24.616H6.364V24.096H7.04V23.836H7.43V23.576H7.846V23.056H8.444V22.666H9.016V22.146H7.274V22.016H6.702V21.496H5.558V20.976H8.522V20.586H6.234V20.196H7.482V19.936H7.43V19.676H7.222V19.286H6.104V18.766H10.16V18.246H11.122V17.856H6.442V17.336H9.51V17.206H7.092V17.076H12.006V16.556H11.382V16.426H5.194V15.906H5.948V15.516H7.56V15.386H8.418V15.126H7.95V14.996H7.404V14.736H7.456V14.502C7.456 14.4673 7.456 14.4413 7.456 14.424C7.47333 14.3893 7.482 14.3633 7.482 14.346H7.586C7.67267 13.982 7.90667 13.8 8.288 13.8H15.776C17.1107 13.8 18.324 13.982 19.416 14.346H19.312C19.624 14.45 19.9447 14.58 20.274 14.736H20.222C20.3087 14.7707 20.3953 14.814 20.482 14.866C20.586 14.9007 20.6727 14.944 20.742 14.996H21.288L21.522 15.126H21.964C22.0507 15.1607 22.12 15.204 22.172 15.256C22.2413 15.308 22.3107 15.3513 22.38 15.386H21.522C21.5567 15.4033 21.5913 15.4207 21.626 15.438C21.6607 15.4553 21.6867 15.4813 21.704 15.516H20.092L20.586 15.906H19.806C19.9967 16.062 20.17 16.2353 20.326 16.426H26.514C26.5313 16.4433 26.5487 16.4607 26.566 16.478C26.5833 16.4953 26.6007 16.5213 26.618 16.556H27.268C27.3373 16.6253 27.4067 16.712 27.476 16.816C27.5453 16.9027 27.606 16.9893 27.658 17.076H22.744C22.7613 17.0933 22.7787 17.1107 22.796 17.128C22.8133 17.1453 22.8307 17.1713 22.848 17.206H25.266L25.344 17.336H22.276C22.3973 17.5093 22.4927 17.6827 22.562 17.856H27.242ZM18.064 19.676C17.96 19.52 17.83 19.39 17.674 19.286H15.568C15.1867 19.0087 14.7187 18.87 14.164 18.87H12.604V19.286H13.722V19.676H13.93V19.936H13.982V20.196H12.734V20.586H15.022V20.976H12.058V21.496H13.202V22.016H13.774V22.146H15.516V22.666H14.944V23.056H14.346V23.576H13.93V23.836H13.54V24.096H12.864V24.616H11.798V24.876H11.46V25.266H11.564V25.786H14.554V26.046H13.878V26.306H13.904V26.566H14.268V26.93H15.958C16.4607 26.93 16.8853 26.8087 17.232 26.566H16.816C16.868 26.5313 16.92 26.4967 16.972 26.462C17.024 26.41 17.0673 26.358 17.102 26.306H14.398C14.4327 26.2713 14.4673 26.2367 14.502 26.202C14.5367 26.15 14.5627 26.098 14.58 26.046H17.7C17.7347 26.0113 17.7607 25.9767 17.778 25.942C17.7953 25.89 17.8127 25.838 17.83 25.786H18.428C18.4627 25.6993 18.4887 25.6127 18.506 25.526C18.5233 25.4393 18.5407 25.3527 18.558 25.266H18.168C18.1853 25.1967 18.194 25.136 18.194 25.084C18.194 25.0147 18.2027 24.9453 18.22 24.876H17.258V24.824C17.258 24.7893 17.258 24.7547 17.258 24.72C17.2753 24.6853 17.284 24.6507 17.284 24.616H17.232C17.232 24.5293 17.232 24.4427 17.232 24.356C17.232 24.252 17.2407 24.1653 17.258 24.096H17.726V23.836H17.882L17.908 23.576H19.364V23.056H17.83V22.666H17.726V22.146H18.09V22.016H17.128V21.496H16.556C16.556 21.4093 16.556 21.3227 16.556 21.236C16.556 21.1493 16.5473 21.0627 16.53 20.976H18.974V20.95C18.974 20.8807 18.9653 20.82 18.948 20.768C18.948 20.6987 18.948 20.638 18.948 20.586H17.986C17.9687 20.5167 17.9513 20.456 17.934 20.404C17.9167 20.3347 17.8993 20.2653 17.882 20.196H17.336C17.3187 20.144 17.3013 20.1007 17.284 20.066C17.2667 20.014 17.2493 19.9707 17.232 19.936H17.934C17.9167 19.884 17.8907 19.8407 17.856 19.806C17.8387 19.754 17.8127 19.7107 17.778 19.676H18.064ZM42.7181 29.426H41.6521L41.4181 29.686H45.3961C45.3788 29.7033 45.3614 29.7207 45.3441 29.738C45.3268 29.7553 45.3008 29.7813 45.2661 29.816H39.1301C39.0434 29.9027 38.9481 29.9893 38.8441 30.076C38.7574 30.1627 38.6621 30.2493 38.5581 30.336H40.4561L40.1181 30.596H43.6541L43.4461 30.726H41.9121C41.8948 30.7433 41.8601 30.7607 41.8081 30.778C41.7734 30.7953 41.7388 30.8213 41.7041 30.856H39.9621L39.2341 31.246H40.2481C40.0228 31.35 39.7974 31.4453 39.5721 31.532C39.3468 31.6013 39.1128 31.6793 38.8701 31.766H37.9341C37.3448 31.9393 36.7034 32.0693 36.0101 32.156H36.1401C35.8628 32.1907 35.5768 32.2167 35.2821 32.234C34.9874 32.2513 34.6928 32.26 34.3981 32.26C34.0688 32.26 33.7394 32.2513 33.4101 32.234C33.0981 32.2167 32.7948 32.1907 32.5001 32.156H32.3961C31.6508 32.0693 30.9834 31.9393 30.3941 31.766H31.3301C31.0701 31.6793 30.8274 31.6013 30.6021 31.532C30.3768 31.4453 30.1514 31.35 29.9261 31.246H28.9121C28.7908 31.1767 28.6694 31.116 28.5481 31.064C28.4268 30.9947 28.3054 30.9253 28.1841 30.856H29.9521L29.7441 30.726H31.2781C31.2608 30.6913 31.2348 30.6653 31.2001 30.648C31.1654 30.6307 31.1308 30.6133 31.0961 30.596H27.5601C27.4908 30.5613 27.4301 30.518 27.3781 30.466C27.3261 30.414 27.2741 30.3707 27.2221 30.336H25.2981C25.2114 30.2493 25.1248 30.1627 25.0381 30.076C24.9341 29.9893 24.8388 29.9027 24.7521 29.816H30.8881C30.8708 29.7813 30.8534 29.7553 30.8361 29.738C30.8188 29.7207 30.8014 29.7033 30.7841 29.686H26.8061C26.7368 29.6167 26.6674 29.53 26.5981 29.426H27.6641C27.6468 29.3913 27.6294 29.3653 27.6121 29.348C27.5948 29.3307 27.5774 29.3133 27.5601 29.296H30.8101L30.5761 28.906H28.9641L28.8861 28.776H25.2201C25.2028 28.7067 25.1768 28.646 25.1421 28.594C25.1074 28.5247 25.0728 28.4553 25.0381 28.386H26.7801L26.6241 27.996H26.0001L25.9481 27.866H26.2341C26.2168 27.7967 26.1994 27.736 26.1821 27.684C26.1648 27.6147 26.1474 27.5453 26.1301 27.476H25.9221C25.9221 27.4067 25.9134 27.346 25.8961 27.294C25.8961 27.2247 25.8874 27.1553 25.8701 27.086H25.6621C25.6621 27.0167 25.6534 26.956 25.6361 26.904C25.6361 26.852 25.6361 26.7913 25.6361 26.722V26.696H25.6101C25.6101 26.6613 25.6101 26.6353 25.6101 26.618C25.6274 26.6007 25.6361 26.5833 25.6361 26.566H26.2341C26.3208 26.2887 26.5028 26.15 26.7801 26.15H31.7201C31.9974 26.15 32.2054 26.1847 32.3441 26.254C32.4828 26.3233 32.6388 26.4273 32.8121 26.566H32.2141L32.2401 26.592C32.2748 26.6093 32.3008 26.6267 32.3181 26.644C32.3528 26.6613 32.3788 26.6787 32.3961 26.696H32.4221C32.6474 26.8693 32.9248 26.9993 33.2541 27.086H33.4881C33.7134 27.1553 34.0168 27.19 34.3981 27.19C34.6234 27.19 34.8314 27.1813 35.0221 27.164C35.2128 27.1467 35.3774 27.1207 35.5161 27.086H35.4381C35.8368 26.9993 36.0881 26.8693 36.1921 26.696H36.1401C36.1748 26.6267 36.1921 26.5833 36.1921 26.566H36.4521L36.4781 26.462C36.4781 26.306 36.4174 26.1673 36.2961 26.046H36.0881C35.9321 25.89 35.6548 25.76 35.2561 25.656H35.1781C35.0221 25.604 34.8401 25.5607 34.6321 25.526C34.4241 25.474 34.1814 25.4307 33.9041 25.396H33.7481L32.6821 25.24C32.5608 25.2227 32.4394 25.2053 32.3181 25.188C32.2141 25.1707 32.1014 25.1533 31.9801 25.136C31.2694 25.0147 30.5848 24.8413 29.9261 24.616H29.4581C29.2154 24.5293 28.9901 24.4427 28.7821 24.356H28.4181C28.3314 24.3213 28.2448 24.2867 28.1581 24.252C28.0714 24.2 27.9848 24.148 27.8981 24.096H25.6361C25.5148 24.0267 25.4021 23.966 25.2981 23.914C25.1941 23.8447 25.0901 23.7753 24.9861 23.706H29.8221C29.7354 23.6367 29.6488 23.576 29.5621 23.524C29.4928 23.4547 29.4148 23.3853 29.3281 23.316H24.1541C24.1021 23.2813 24.0588 23.238 24.0241 23.186C23.9721 23.134 23.9288 23.0907 23.8941 23.056H25.2461C25.0901 22.8827 24.9428 22.7093 24.8041 22.536H25.1941L25.0381 22.276H22.5421C22.5248 22.2413 22.5074 22.2153 22.4901 22.198C22.4728 22.1807 22.4641 22.1633 22.4641 22.146H28.3921C28.3574 22.0767 28.3228 22.016 28.2881 21.964C28.2534 21.8947 28.2188 21.8253 28.1841 21.756H23.6341L23.4781 21.366H27.1441L27.0921 21.236H26.0001L25.9481 21.106H26.4681C26.4681 21.0713 26.4594 21.0453 26.4421 21.028C26.4421 21.0107 26.4421 20.9933 26.4421 20.976H26.3381L26.2601 20.716H26.1041L26.0781 20.456H26.0261V20.326H25.1941C25.1768 20.2913 25.1681 20.248 25.1681 20.196C25.1681 20.144 25.1681 20.1007 25.1681 20.066H24.4141L24.3881 19.806H27.3521C27.3348 19.7713 27.3261 19.728 27.3261 19.676C27.3261 19.624 27.3261 19.5807 27.3261 19.546H27.7421V19.52C27.7421 19.4333 27.7421 19.3467 27.7421 19.26C27.7421 19.1733 27.7508 19.0953 27.7681 19.026H26.6501C26.6674 18.9567 26.6761 18.896 26.6761 18.844C26.6761 18.7747 26.6848 18.7053 26.7021 18.636H28.5221C28.5221 18.6013 28.5221 18.5753 28.5221 18.558C28.5394 18.5407 28.5481 18.5233 28.5481 18.506H26.7021C26.7368 18.402 26.7541 18.3153 26.7541 18.246H26.4681L26.5461 17.986H26.1041C26.1561 17.7953 26.2168 17.622 26.2861 17.466H26.4941L26.5981 17.206H26.8841L27.1181 16.816H26.8581C26.9101 16.7467 26.9534 16.686 26.9881 16.634C27.0401 16.5647 27.0834 16.4953 27.1181 16.426H26.9101L27.2221 16.036H27.7681C27.7854 16.0013 27.8028 15.9753 27.8201 15.958C27.8374 15.9407 27.8548 15.9233 27.8721 15.906H27.1441C27.2134 15.8367 27.2828 15.776 27.3521 15.724C27.4214 15.6547 27.4908 15.5853 27.5601 15.516H27.9761C28.0801 15.4293 28.1841 15.3427 28.2881 15.256C28.3921 15.152 28.5048 15.0653 28.6261 14.996H29.0941C29.1981 14.9267 29.3021 14.866 29.4061 14.814C29.5101 14.7447 29.6228 14.6753 29.7441 14.606H29.6661C29.7008 14.5713 29.7441 14.5453 29.7961 14.528C29.8481 14.5107 29.8914 14.4933 29.9261 14.476H29.5621C29.5968 14.4413 29.6401 14.4153 29.6921 14.398C29.7441 14.3807 29.7961 14.3633 29.8481 14.346H29.5881C29.8308 14.242 30.0821 14.1467 30.3421 14.06C30.6194 13.9733 30.8968 13.8953 31.1741 13.826H31.5641C31.9628 13.7393 32.3788 13.67 32.8121 13.618C33.2628 13.566 33.7308 13.54 34.2161 13.54C35.1348 13.54 36.0014 13.6353 36.8161 13.826H36.4521C37.0068 13.9473 37.5441 14.1207 38.0641 14.346H38.2981C38.3501 14.3633 38.4021 14.3807 38.4541 14.398C38.5061 14.4153 38.5581 14.4413 38.6101 14.476H38.9741C39.0088 14.4933 39.0521 14.5107 39.1041 14.528C39.1561 14.5453 39.1994 14.5713 39.2341 14.606H39.3121C39.4334 14.6753 39.5461 14.7447 39.6501 14.814C39.7714 14.866 39.8841 14.9267 39.9881 14.996H39.5461C39.6848 15.0653 39.8061 15.152 39.9101 15.256C40.0314 15.3427 40.1441 15.4293 40.2481 15.516H39.8581L40.2741 15.906H41.0021L41.1321 16.036H40.5861C40.6554 16.1053 40.7161 16.1747 40.7681 16.244C40.8374 16.296 40.8981 16.3567 40.9501 16.426H41.1581L41.4701 16.816H41.7041L41.9381 17.206H41.6521C41.7041 17.2927 41.7474 17.3793 41.7821 17.466H41.5741C41.6261 17.5527 41.6694 17.6393 41.7041 17.726C41.7388 17.8127 41.7734 17.8993 41.8081 17.986H42.2501C42.2848 18.09 42.3021 18.1767 42.3021 18.246H42.6141C42.6314 18.2807 42.6401 18.324 42.6401 18.376C42.6401 18.428 42.6488 18.4713 42.6661 18.506H44.5121V18.636H42.8481C42.8654 18.7053 42.8741 18.8007 42.8741 18.922V19.026H41.9121C41.8428 19.338 41.6694 19.494 41.3921 19.494H36.1921C35.9494 19.494 35.7501 19.4593 35.5941 19.39C35.4554 19.3207 35.3081 19.2167 35.1521 19.078L35.0741 19.026H36.0361C35.9494 18.9567 35.8281 18.8873 35.6721 18.818C35.5161 18.7313 35.3168 18.6707 35.0741 18.636H34.1381C33.7741 18.688 33.5228 18.818 33.3841 19.026H34.5021C34.4501 19.13 34.4241 19.234 34.4241 19.338C34.4241 19.4247 34.4328 19.494 34.4501 19.546H34.0601C34.0774 19.6327 34.1468 19.7193 34.2681 19.806H31.3301C31.4341 19.8927 31.6161 19.9793 31.8761 20.066H32.6301C32.7688 20.118 32.9334 20.17 33.1241 20.222C33.3321 20.2567 33.5488 20.2913 33.7741 20.326H34.6061C34.7448 20.3433 34.8921 20.3607 35.0481 20.378C35.2041 20.3953 35.3688 20.4213 35.5421 20.456H35.5681C35.8628 20.4907 36.1488 20.534 36.4261 20.586C36.7034 20.6207 36.9634 20.664 37.2061 20.716H37.3621C37.5701 20.7507 37.7608 20.794 37.9341 20.846C38.1248 20.8807 38.3068 20.924 38.4801 20.976H38.5841C38.6708 20.9933 38.7488 21.0107 38.8181 21.028C38.8874 21.0453 38.9568 21.0713 39.0261 21.106H38.5321C38.6014 21.1233 38.6621 21.1407 38.7141 21.158C38.7834 21.1753 38.8528 21.2013 38.9221 21.236H40.0141C40.0661 21.2533 40.1181 21.2707 40.1701 21.288C40.2394 21.3053 40.3001 21.3313 40.3521 21.366H36.6861C37.0328 21.5047 37.3101 21.6347 37.5181 21.756H42.0681C42.1721 21.8253 42.2761 21.8947 42.3801 21.964C42.4841 22.016 42.5794 22.0767 42.6661 22.146H36.7381C36.7728 22.1633 36.8074 22.1807 36.8421 22.198C36.8768 22.2153 36.9028 22.2413 36.9201 22.276H39.4161C39.4681 22.3107 39.5201 22.354 39.5721 22.406C39.6241 22.458 39.6674 22.5013 39.7021 22.536H39.3121C39.4854 22.692 39.6328 22.8653 39.7541 23.056H38.4021C38.4368 23.0907 38.4714 23.134 38.5061 23.186C38.5408 23.238 38.5668 23.2813 38.5841 23.316H43.7321L43.9661 23.706H39.1301C39.1648 23.7753 39.1994 23.8447 39.2341 23.914C39.2688 23.966 39.2948 24.0267 39.3121 24.096H41.5481L41.6261 24.356H41.9901L42.0681 24.616H42.5361C42.5708 24.6853 42.5881 24.772 42.5881 24.876C42.6054 24.9627 42.6228 25.0493 42.6401 25.136L42.6661 25.396H42.8221C42.8394 25.4307 42.8481 25.474 42.8481 25.526C42.8481 25.578 42.8481 25.6213 42.8481 25.656H42.9261V26.046H43.1601V26.124C43.1601 26.1933 43.1514 26.2627 43.1341 26.332C43.1341 26.4013 43.1341 26.4793 43.1341 26.566H42.8741V26.696H42.9261C42.9261 26.7653 42.9174 26.8347 42.9001 26.904C42.9001 26.956 42.8914 27.0167 42.8741 27.086H42.9521L42.8741 27.476H43.0821C43.0648 27.5453 43.0474 27.6147 43.0301 27.684C43.0128 27.736 42.9868 27.7967 42.9521 27.866H42.6661C42.6661 27.8833 42.6574 27.9007 42.6401 27.918C42.6401 27.9353 42.6401 27.9613 42.6401 27.996H43.2641L43.1081 28.386H41.3661C41.3488 28.4553 41.3141 28.5247 41.2621 28.594C41.2274 28.646 41.1928 28.7067 41.1581 28.776H44.8241L44.7461 28.906H46.3321C46.2974 28.9753 46.2541 29.0447 46.2021 29.114C46.1674 29.166 46.1241 29.2267 46.0721 29.296H42.8221C42.8048 29.3133 42.7874 29.3307 42.7701 29.348C42.7528 29.3653 42.7354 29.3913 42.7181 29.426ZM35.9581 18.636H36.7381C36.6861 18.6187 36.6254 18.61 36.5561 18.61C36.5041 18.61 36.4434 18.61 36.3741 18.61C36.3048 18.61 36.2354 18.61 36.1661 18.61C36.0968 18.61 36.0274 18.6187 35.9581 18.636Z" fill="white"/>
</svg>
